<svg width="38" height="24" viewBox="0 0 38 24" fill="none" xmlns="http://www.w3.org/2000/svg">
<rect x="0.5" y="0.5" width="23" height="23" rx="3.5" fill="#FAB961" stroke="#E8A30F"/>
<rect opacity="0.01" x="4.05859" y="4" width="15.9414" height="15.805" fill="black"/>
<rect opacity="0.01" x="4" y="4.19531" width="15.9414" height="15.805" fill="black"/>
<path fill-rule="evenodd" clip-rule="evenodd" d="M8.0765 5.88867C7.51596 5.88911 7.0476 6.31193 6.99478 6.8652L6.57917 11.3809H10.9915L11.4982 5.88867H8.0765ZM12.1924 15.2644C12.2018 13.9754 12.8959 12.7868 14.0188 12.1369C15.1416 11.487 16.5269 11.4722 17.6637 12.0978L17.1854 6.88778C17.1439 6.32773 16.6758 5.89304 16.1094 5.88867H12.6137L11.475 18.0247H13.4449C12.6431 17.3284 12.1861 16.3211 12.1924 15.2644ZM6.35777 17.6742C6.15208 17.451 6.05041 17.1523 6.07756 16.8511L6.4761 12.5104H10.8941L10.3874 18.0252H7.15927C6.85428 18.0248 6.56347 17.8975 6.35777 17.6742Z" fill="white"/>
<path fill-rule="evenodd" clip-rule="evenodd" d="M14.2772 13.0352C15.3358 12.2666 16.7919 12.3352 17.7723 13.1998C18.3662 13.7274 18.7057 14.4807 18.706 15.2714C18.7016 16.5722 17.7818 17.6935 16.4981 17.9627C15.2145 18.2319 13.9155 17.576 13.3802 16.3883C12.8449 15.2007 13.2186 13.8037 14.2772 13.0352ZM17.4175 16.8574C17.6664 16.7698 17.8378 16.5425 17.8522 16.281L17.8465 16.2415C17.8366 15.9988 17.6919 15.7816 17.4708 15.6771C17.6617 14.9042 17.2623 14.1076 16.5257 13.7917C16.4825 13.4691 16.2049 13.2281 15.8767 13.2281C15.5484 13.2281 15.2708 13.4691 15.2276 13.7917C14.5031 14.1103 14.1107 14.8957 14.2939 15.6601C14.0602 15.777 13.9192 16.0207 13.9353 16.2797C13.9515 16.5388 14.1217 16.7634 14.3682 16.8508C14.6146 16.9383 14.8899 16.8718 15.0682 16.6818C15.5773 16.9732 16.2045 16.9732 16.7136 16.6818C16.891 16.8757 17.1686 16.945 17.4175 16.8574Z" fill="white"/>
<path d="M16.4736 14.1582C16.3682 14.392 16.1341 14.5426 15.8758 14.5426C15.6175 14.5426 15.3833 14.392 15.278 14.1582C14.7443 14.4359 14.475 15.0424 14.629 15.6202C14.8102 15.6405 14.9748 15.7349 15.0828 15.8806C15.1909 16.0264 15.2328 16.2102 15.1983 16.3878C15.6096 16.6345 16.1249 16.6345 16.5362 16.3878C16.5017 16.2102 16.5436 16.0264 16.6517 15.8806C16.7598 15.7349 16.9243 15.6405 17.1055 15.6202C17.2624 15.0465 17.0007 14.4412 16.4736 14.1582V14.1582Z" fill="white"/>
<rect x="14.5" y="0.5" width="23" height="23" rx="3.5" fill="#6EA0FF" stroke="#3479FA"/>
<rect opacity="0.01" x="19" y="5" width="14" height="14" fill="black"/>
<path d="M26.0982 16.3821C25.8002 16.3775 25.5149 16.2599 25.3002 16.0531L24.8522 15.7731C24.7129 15.6343 24.4876 15.6343 24.3482 15.7731L23.9002 16.0531C23.6912 16.2643 23.4064 16.3831 23.1092 16.3831C22.8121 16.3831 22.5273 16.2643 22.3182 16.0531L21.8702 15.7731C21.7309 15.6343 21.5056 15.6343 21.3662 15.7731L20.7922 16.2001C20.7027 16.2899 20.5753 16.3309 20.4502 16.31C20.3251 16.2892 20.2178 16.2091 20.1622 16.0951C20.0283 15.8399 20.0644 15.5288 20.2532 15.3111L20.8272 14.8981C21.2684 14.465 21.9751 14.465 22.4162 14.8981L22.8572 15.1851C23.0018 15.3177 23.2237 15.3177 23.3682 15.1851L23.8092 14.8981C24.248 14.4658 24.9525 14.4658 25.3912 14.8981L25.8392 15.1851C25.9838 15.3177 26.2057 15.3177 26.3502 15.1851L26.7912 14.8981C27.23 14.4658 27.9345 14.4658 28.3732 14.8981L28.8212 15.1851C28.9635 15.3167 29.183 15.3167 29.3252 15.1851L29.7732 14.8981C30.212 14.4658 30.9165 14.4658 31.3552 14.8981L31.8032 15.1851C31.989 15.4014 32.025 15.7087 31.8942 15.9621C31.8361 16.075 31.7286 16.1542 31.6035 16.1762C31.4785 16.1982 31.3504 16.1604 31.2572 16.0741L30.8162 15.7941C30.6745 15.6544 30.4469 15.6544 30.3052 15.7941L29.8642 16.0741C29.6552 16.2853 29.3704 16.4041 29.0732 16.4041C28.7761 16.4041 28.4913 16.2853 28.2822 16.0741L27.8342 15.7941C27.6949 15.6553 27.4696 15.6553 27.3302 15.7941L26.8822 16.0741C26.6735 16.2813 26.3924 16.3993 26.0982 16.4031V16.3821Z" fill="white"/>
<path fill-rule="evenodd" clip-rule="evenodd" d="M27.7925 8.64028C26.1685 7.42228 23.0325 7.45028 23.0325 7.45028V6.28128C23.0248 5.95541 22.7564 5.69636 22.4305 5.70028H20.0225V6.86228H21.2265C21.5441 6.87348 21.7969 7.13242 21.8005 7.45028V9.77428C21.7986 9.93147 21.7339 10.0814 21.6208 10.1905C21.5077 10.2997 21.3556 10.359 21.1985 10.3553H20.0225V11.5173H22.4305C22.7564 11.5212 23.0248 11.2622 23.0325 10.9363V9.77428C23.7443 9.94424 24.3943 10.3104 24.9085 10.8313C25.5629 11.6988 25.9431 12.7421 26.0005 13.8273C26.6574 14.1281 27.3803 14.2558 28.1005 14.1983C29.0095 14.1909 29.9101 14.0227 30.7605 13.7013C30.5307 11.6707 29.4525 9.8321 27.7925 8.64028ZM26.0985 18.3003L26.0947 18.3002C26.3873 18.2941 26.6666 18.1765 26.8755 17.9713L27.3235 17.6913C27.4628 17.5524 27.6881 17.5524 27.8275 17.6913L28.2755 17.9713C28.4845 18.1825 28.7693 18.3013 29.0665 18.3013C29.3636 18.3013 29.6484 18.1825 29.8575 17.9713L30.2985 17.6913C30.4402 17.5516 30.6678 17.5516 30.8095 17.6913L31.2505 17.9713C31.3423 18.0605 31.4714 18.1002 31.5976 18.0781C31.7237 18.0559 31.8315 17.9745 31.8875 17.8593C32.0182 17.6059 31.9822 17.2986 31.7965 17.0823L31.3485 16.8023C31.1394 16.5911 30.8546 16.4723 30.5575 16.4723C30.2603 16.4723 29.9755 16.5911 29.7665 16.8023L29.3185 17.0823C29.1762 17.2139 28.9567 17.2139 28.8145 17.0823L28.3665 16.8023C28.1574 16.5911 27.8726 16.4723 27.5755 16.4723C27.2783 16.4723 26.9935 16.5911 26.7845 16.8023L26.3435 17.0823C26.1989 17.2148 25.977 17.2148 25.8325 17.0823L25.3845 16.8023C25.1754 16.5911 24.8906 16.4723 24.5935 16.4723C24.2963 16.4723 24.0115 16.5911 23.8025 16.8023L23.3615 17.0823C23.2169 17.2148 22.995 17.2148 22.8505 17.0823L22.4095 16.8023C22.1992 16.5907 21.9133 16.4717 21.615 16.4717C21.3167 16.4717 21.0307 16.5907 20.8205 16.8023L20.2465 17.2083C20.0576 17.426 20.0215 17.7371 20.1555 17.9923C20.2119 18.105 20.3183 18.1843 20.4424 18.2064C20.5664 18.2284 20.6936 18.1906 20.7855 18.1043L21.3665 17.6913C21.5058 17.5524 21.7311 17.5524 21.8705 17.6913L22.3185 17.9713C22.5275 18.1825 22.8123 18.3013 23.1095 18.3013C23.4066 18.3013 23.6914 18.1825 23.9005 17.9713L24.3485 17.6913C24.4878 17.5524 24.7131 17.5524 24.8525 17.6913L25.3005 17.9713C25.5142 18.1773 25.798 18.2947 26.0947 18.3002L26.0915 18.3003H26.0985ZM29.2695 10.4323H27.4495V10.8313H29.2695V10.4323ZM26.8201 10.389L26.8201 10.389C26.9931 10.4765 27.1776 10.5699 27.3165 10.6493L27.0295 11.0133C26.9073 10.9202 26.6593 10.7787 26.4746 10.6733C26.4371 10.6519 26.4022 10.632 26.3715 10.6143L26.6165 10.2853C26.6796 10.3179 26.7487 10.3529 26.8198 10.3888L26.8201 10.389ZM27.0925 11.6643C26.9035 11.5593 26.6165 11.4123 26.3925 11.3003L26.1825 11.6293C26.2884 11.7148 26.4441 11.8004 26.5848 11.8777C26.6858 11.9332 26.779 11.9844 26.8405 12.0283L27.0925 11.6643ZM26.7005 13.5543L26.3015 13.2673C26.4835 13.0153 26.7705 12.5673 27.0015 12.1403L27.3235 12.4273C27.1383 12.815 26.9303 13.1913 26.7005 13.5543ZM29.2835 12.2873V12.1053L27.9885 12.1403L28.1005 11.6993H29.5005V11.3003H27.2325V11.6643H27.7015C27.6876 11.7224 27.6738 11.7819 27.6599 11.8416C27.6035 12.0839 27.5462 12.3302 27.4845 12.5043H28.7655C28.7305 12.8683 28.6955 13.0503 28.6255 13.1203C28.5702 13.1513 28.5063 13.1635 28.4435 13.1553C28.2097 13.1569 27.9759 13.1453 27.7435 13.1203C27.8453 13.2304 27.9091 13.3702 27.9255 13.5193H28.6255C28.7852 13.5324 28.9436 13.4821 29.0665 13.3793C29.1715 13.2673 29.2485 12.9873 29.2835 12.2873Z" fill="white"/>
</svg>
