<svg width="45" height="61" viewBox="0 0 45 61" fill="none" xmlns="http://www.w3.org/2000/svg">
<mask id="mask0_2001_447" style="mask-type:luminance" maskUnits="userSpaceOnUse" x="0" y="0" width="45" height="61">
<rect width="45" height="61" fill="white"/>
</mask>
<g mask="url(#mask0_2001_447)">
<path fill-rule="evenodd" clip-rule="evenodd" d="M36.0103 40.8092C36.1925 40.6809 36.3677 40.5429 36.5353 40.3958C44.153 34.268 46.9893 23.8937 43.5608 14.6986C40.1323 5.50346 31.2188 -0.421106 21.482 0.0234004C11.7452 0.467907 3.39975 7.18038 0.810192 16.6503C-1.77936 26.1201 1.976 36.1935 10.1123 41.6021C13.2088 43.9164 21.786 51.2613 22.5022 61.9802C22.5074 62.0059 22.5074 62.0285 22.5074 62.0558C22.6109 59.4172 23.8251 49.4919 35.7613 40.9906C35.7868 40.9721 35.8124 40.9537 35.838 40.9353C35.8958 40.8937 35.9536 40.8522 36.0103 40.8092ZM22.5052 62.7345C22.5052 62.7345 22.4932 62.4903 22.5104 62.0542C23.3759 75.0232 22.5052 62.7345 22.5052 62.7345Z" fill="#FAB961"/>
</g>
<path d="M22.5709 28.3327L22.5933 28.3215C22.6034 28.3201 22.613 28.3162 22.6213 28.3103L22.7072 28.2935C23.209 28.2413 23.7028 28.1291 24.178 27.9594C25.3033 27.9939 26.4187 28.1823 27.4929 28.5194C31.1587 29.4638 31.336 26.9422 34.1265 27.8194L34.8189 28.1087L35 28.1722C35 28.1722 34.8507 28.4746 34.7723 28.622L34.6267 28.8815L34.4848 29.1297C34.4326 29.2156 34.3841 29.2996 34.3281 29.3873C34.2721 29.475 34.2086 29.5739 34.1414 29.6654L33.8894 30.0387C33.8334 30.1208 33.7718 30.2086 33.7028 30.2888C33.6337 30.3691 33.5871 30.4493 33.5161 30.524C33.4452 30.5987 33.3911 30.6845 33.3295 30.7648C33.2679 30.845 33.2175 30.9085 33.1578 30.9813C33.0495 31.1138 32.9375 31.2445 32.8237 31.3714L32.637 31.5581L32.4168 31.7858C32.3533 31.8548 32.2898 31.9183 32.2301 31.9724C32.1312 32.0695 32.0435 32.1591 31.9371 32.2524L31.6963 32.4727C31.6005 32.5585 31.5034 32.6425 31.4051 32.7246C31.336 32.7806 31.2745 32.831 31.2073 32.8889L30.9217 33.1166C30.8582 33.1614 30.8022 33.2118 30.735 33.2547C30.5894 33.363 30.442 33.4675 30.2945 33.5702L30.1079 33.6915C30.0015 33.7643 29.8932 33.8334 29.7831 33.9024C29.7178 33.9379 29.6562 33.9827 29.5965 34.02L29.1504 34.2776L29.0066 34.356C28.8648 34.4325 28.7211 34.5034 28.5736 34.5781C28.512 34.6061 28.4504 34.6397 28.387 34.6677C28.2003 34.7535 28.0137 34.8375 27.827 34.9178C27.5956 35.0149 27.3604 35.1045 27.1233 35.1922C26.9815 35.2426 26.8378 35.2911 26.694 35.3378L26.5074 35.3956C26.3207 35.4516 26.1229 35.5058 25.9269 35.5599H25.8914C25.7048 35.6065 25.5181 35.6513 25.3203 35.6924C25.2587 35.7036 25.2027 35.7111 25.1336 35.726C24.9731 35.7559 24.8145 35.7857 24.6521 35.8119L24.5084 35.8324C24.3049 35.8641 24.0977 35.8921 23.8924 35.9145L23.7468 35.9257C23.5807 35.9425 23.4165 35.9537 23.2466 35.9649C23.2466 35.9649 22.6587 35.9873 22.4552 35.9873C22.1696 35.9873 21.2718 35.9425 21.1095 35.9257L20.9433 35.9108C20.738 35.8903 20.5327 35.8641 20.3293 35.8305L20.1986 35.8081C20.0325 35.7839 19.8701 35.7521 19.7077 35.7223L19.5211 35.6849C19.3568 35.6495 19.1944 35.6121 19.0339 35.5711L18.9088 35.5431C18.7222 35.4908 18.5243 35.4367 18.334 35.3788L18.1473 35.321C18.011 35.278 17.8748 35.2332 17.7404 35.1847C17.677 35.1644 17.6147 35.1407 17.5538 35.1138C17.382 35.0447 17.2103 34.9813 17.0386 34.9085C16.9901 34.8879 16.9397 34.8693 16.893 34.845C16.7549 34.7834 16.6112 34.7199 16.473 34.6584C16.3984 34.6266 16.3293 34.5893 16.2584 34.5557C16.1445 34.4978 16.0307 34.4418 15.9206 34.384C15.8496 34.3504 15.7843 34.313 15.7171 34.2757C15.5603 34.1861 15.4035 34.0891 15.2468 34.0032C15.174 33.964 15.1068 33.9173 15.0358 33.8744L14.7484 33.6878C14.67 33.6374 14.5916 33.5851 14.5169 33.5272C14.4423 33.4694 14.3303 33.4022 14.2482 33.3406L13.9141 33.0886C13.8207 33.0177 13.7274 32.9468 13.636 32.874L13.3952 32.6705L13.1973 32.5007C13.1152 32.4297 13.0349 32.3569 12.9565 32.2823C12.7512 32.0956 12.5515 31.8959 12.3574 31.6925C12.3089 31.6421 12.2566 31.5898 12.2099 31.5338C12.1297 31.4461 12.0494 31.3583 11.971 31.2687L11.8385 31.1157C11.5921 30.822 11.3489 30.5085 11.1087 30.175L11.0098 30.0387C10.937 29.9323 10.8642 29.8259 10.7933 29.7177C10.769 29.6822 10.7447 29.6393 10.7167 29.6001C10.573 29.3724 10.4349 29.1446 10.3042 28.9188C10.2874 28.8945 10.2762 28.8665 10.2613 28.8423C10.196 28.7284 10.1344 28.609 10.0747 28.4914C10.0504 28.441 10.028 28.3924 10 28.3458V27.9277C12.1894 27.1923 11.9318 28.4447 14.698 28.6743C18.0577 28.9673 19.941 28.8964 21.1356 28.7135C21.1356 28.7135 22.5896 28.3402 22.5691 28.3402C22.5745 28.3418 22.5804 28.3418 22.5859 28.3402L22.5709 28.3327Z" fill="white"/>
<path d="M12.4297 25.746C12.4293 25.9923 12.502 26.2332 12.6386 26.4382C12.7752 26.6432 12.9695 26.8031 13.1969 26.8976C13.4244 26.9921 13.6748 27.017 13.9164 26.9692C14.158 26.9213 14.38 26.8029 14.5543 26.6289C14.7286 26.4548 14.8474 26.233 14.8955 25.9915C14.9437 25.7499 14.9192 25.4995 14.825 25.2719C14.7308 25.0443 14.5713 24.8498 14.3665 24.7129C14.1617 24.576 13.921 24.5029 13.6746 24.5029C13.3448 24.5029 13.0284 24.6338 12.795 24.8669C12.5616 25.1 12.4302 25.4162 12.4297 25.746Z" fill="white"/>
<path d="M30.7256 23.1564C30.7256 23.4845 30.8229 23.8053 31.0051 24.0781C31.1873 24.3509 31.4464 24.5636 31.7495 24.6893C32.0526 24.8149 32.3861 24.8479 32.7079 24.784C33.0298 24.7201 33.3254 24.5623 33.5576 24.3304C33.7897 24.0985 33.9479 23.803 34.0121 23.4813C34.0764 23.1595 34.0438 22.8259 33.9185 22.5227C33.7932 22.2195 33.5808 21.9602 33.3081 21.7776C33.0355 21.5951 32.7149 21.4974 32.3868 21.4971C32.1689 21.4971 31.9531 21.54 31.7518 21.6234C31.5505 21.7068 31.3675 21.829 31.2135 21.9831C31.0594 22.1372 30.9371 22.3201 30.8538 22.5214C30.7704 22.7227 30.7275 22.9385 30.7275 23.1564H30.7256Z" fill="white"/>
<path d="M17.0699 12.0023C16.3047 13.3089 15.1045 15.3359 15.1045 16.4222C15.1045 16.6804 15.1553 16.936 15.254 17.1745C15.3528 17.4129 15.4976 17.6296 15.6801 17.8122C15.8626 17.9947 16.0793 18.1395 16.3177 18.2383C16.5562 18.3371 16.8118 18.3879 17.0699 18.3879C17.328 18.3879 17.5836 18.3371 17.8221 18.2383C18.0606 18.1395 18.2773 17.9947 18.4598 17.8122C18.6423 17.6296 18.7871 17.4129 18.8858 17.1745C18.9846 16.936 19.0354 16.6804 19.0354 16.4222C19.0354 15.3415 17.7829 13.3145 17.0699 12.0023ZM16.8945 24.1702C16.903 24.324 16.9702 24.4688 17.0821 24.5747C17.1941 24.6805 17.3423 24.7395 17.4964 24.7395C17.6505 24.7395 17.7988 24.6805 17.9107 24.5747C18.0226 24.4688 18.0898 24.324 18.0984 24.1702C17.9774 23.6879 17.7741 23.2301 17.4974 22.817C17.2131 23.2261 17.0086 23.6852 16.8945 24.1702ZM18.7404 21.1408C18.7404 22.3358 19.2152 23.4819 20.0602 24.3269C20.9051 25.1719 22.0512 25.6466 23.2462 25.6466C24.4412 25.6466 25.5873 25.1719 26.4322 24.3269C27.2772 23.4819 27.7519 22.3358 27.7519 21.1408C27.7519 18.6527 24.8701 14.0088 23.2406 11C21.4935 14.0051 18.7404 18.6527 18.7404 21.1408ZM22.6228 23.347C22.1874 23.3372 21.7602 23.2274 21.3741 23.026C21.062 22.8832 20.787 22.6705 20.5701 22.4045C20.3533 22.1385 20.2005 21.8262 20.1235 21.4917C19.8977 20.3363 20.1086 19.6159 20.5584 19.0895C21.0083 18.5631 21.865 18.9029 21.5887 19.5207C21.3703 20.0858 21.3703 20.712 21.5887 21.2771C22.0684 22.1077 23.0577 21.837 23.1771 22.5519C23.1771 22.5762 23.1771 22.6004 23.1902 22.6247C23.2006 22.7094 23.1942 22.7954 23.1713 22.8776C23.1484 22.9598 23.1094 23.0367 23.0567 23.1039C23.004 23.171 22.9385 23.227 22.864 23.2688C22.7895 23.3105 22.7076 23.3371 22.6228 23.347ZM28.9278 13.0065C28.5545 13.6467 27.9647 14.6397 27.9647 15.1717C27.9756 15.4195 28.0818 15.6536 28.261 15.8251C28.4403 15.9967 28.6788 16.0924 28.9269 16.0924C29.175 16.0924 29.4135 15.9967 29.5928 15.8251C29.772 15.6536 29.8782 15.4195 29.8891 15.1717C29.8891 14.6397 29.2731 13.6467 28.9278 13.0065Z" fill="white"/>
</svg>
