<?xml version="1.0" encoding="UTF-8"?>
<svg width="82px" height="33px" viewBox="0 0 82 33" version="1.1" xmlns="http://www.w3.org/2000/svg" xmlns:xlink="http://www.w3.org/1999/xlink">
    <title>评估</title>
    <g id="app界面" stroke="none" stroke-width="1" fill="none" fill-rule="evenodd">
        <g id="切图" transform="translate(-691.000000, -230.000000)">
            <g id="评估" transform="translate(691.000000, 230.000000)">
                <g id="评价" transform="translate(17.000000, 6.000000)" fill="#3479FA" fill-rule="nonzero">
                    <rect id="矩形" opacity="0" x="0" y="0" width="22" height="22"></rect>
                    <path d="M17.6171875,11 C17.6171875,10.6440254 17.9057441,10.3554687 18.2617187,10.3554687 C18.6176934,10.3554687 18.90625,10.6440254 18.90625,11 L18.90625,16.6092051 C18.90625,17.2304043 18.842334,17.5613496 18.6578906,17.9062168 C18.4854785,18.2286113 18.2286328,18.4854785 17.9062168,18.6578906 C17.5613496,18.842334 17.2304043,18.90625 16.6092051,18.90625 L5.39079492,18.90625 C4.7695957,18.90625 4.43865039,18.842334 4.0937832,18.6578906 C3.77138867,18.4854785 3.51452148,18.2286328 3.34210937,17.9062168 C3.15766602,17.5613496 3.09375,17.2304043 3.09375,16.6092051 L3.09375,5.39079492 C3.09375,4.7695957 3.15766602,4.43865039 3.34210937,4.0937832 C3.51452148,3.77138867 3.77136719,3.51452148 4.0937832,3.34210937 C4.43865039,3.15766602 4.7695957,3.09375 5.39079492,3.09375 L11,3.09375 C11.3559746,3.09375 11.6445312,3.38230664 11.6445312,3.73828125 C11.6445312,4.09425586 11.3559746,4.3828125 11,4.3828125 L5.39079492,4.3828125 C4.96420117,4.3828125 4.83428516,4.40790625 4.70170508,4.47880469 C4.60395117,4.53109766 4.53109766,4.60395117 4.47880469,4.70170508 C4.40790625,4.83428516 4.3828125,4.96420117 4.3828125,5.39079492 L4.3828125,16.6092051 C4.3828125,17.0357988 4.40790625,17.1657148 4.47880469,17.2982949 C4.53109766,17.3960488 4.60395117,17.4689023 4.70170508,17.5211953 C4.83428516,17.5920937 4.96420117,17.6171875 5.39079492,17.6171875 L16.6092051,17.6171875 C17.0357988,17.6171875 17.1657148,17.5920937 17.2982949,17.5211953 C17.3960488,17.4689023 17.4689023,17.3960488 17.5211953,17.2982949 C17.5920937,17.1657148 17.6171875,17.0357988 17.6171875,16.6092051 L17.6171875,11 Z M16.3785488,4.42578125 L17.5938984,5.64113086 L11.0637656,12.1712422 C10.993168,12.2418613 10.9661836,12.2637324 10.9328613,12.2845508 C10.9004498,12.3050151 10.8647815,12.3197939 10.8273945,12.32825 C10.7891309,12.3370586 10.7545625,12.3406895 10.6547246,12.3406895 L9.89933398,12.3406895 C9.8227207,12.3406895 9.79491992,12.3326973 9.76692578,12.3177227 C9.73924561,12.3030699 9.71660977,12.2804341 9.70195703,12.2527539 C9.68698242,12.2247383 9.67899023,12.196959 9.67899023,12.1203457 L9.67899023,11.3649551 C9.67899023,11.2650957 9.68262109,11.2305488 9.69145117,11.1922852 C9.69989828,11.1548921 9.7146699,11.1192164 9.73512891,11.0867969 C9.75596875,11.0534961 9.77781836,11.0265117 9.8484375,10.9559141 L16.3785488,4.42578125 Z M17.9579082,3.44832812 L18.5500391,4.04045898 C18.6584062,4.14880469 18.6864004,4.19937891 18.704834,4.26017969 C18.7232676,4.32098047 18.7232676,4.38315625 18.704834,4.44393555 C18.6864004,4.50473633 18.6584062,4.55531055 18.5500391,4.66365625 L18.1020684,5.11164844 L16.8867188,3.89629883 L17.3347109,3.44832812 C17.4430566,3.33996094 17.4936309,3.3119668 17.5544316,3.2935332 C17.6142979,3.27510771 17.6783212,3.27510771 17.7381875,3.2935332 C17.7989883,3.3119668 17.8495625,3.33996094 17.9579082,3.44832812 L17.9579082,3.44832812 Z" id="形状"></path>
                </g>
                <text font-family="PingFangSC-Regular, PingFang SC" font-size="14" font-weight="normal" fill="#3479FA">
                    <tspan x="38" y="22">评估</tspan>
                </text>
                <rect id="矩形备份" stroke="#3479FA" x="0.5" y="0.5" width="81" height="32" rx="16"></rect>
            </g>
        </g>
    </g>
</svg>