<?xml version="1.0" encoding="UTF-8"?>
<svg width="17px" height="16px" viewBox="0 0 17 16" version="1.1" xmlns="http://www.w3.org/2000/svg" xmlns:xlink="http://www.w3.org/1999/xlink">
    <title>筛选</title>
    <g id="app界面" stroke="none" stroke-width="1" fill="none" fill-rule="evenodd">
        <g id="切图" transform="translate(-835.000000, -180.000000)" fill="#666666" fill-rule="nonzero">
            <g id="筛选" transform="translate(835.833333, 180.000000)">
                <rect id="矩形" opacity="0" x="0" y="0" width="16" height="16"></rect>
                <path d="M9.94559375,7.592 C9.94559375,7.816 9.76720313,7.99759375 9.54559375,7.99759375 C9.3232273,7.99583112 9.14426829,7.81436948 9.14559375,7.592 L9.14559375,7.17040625 C9.14559375,6.88559375 9.2448125,6.61040625 9.424,6.3911875 L12.692,2.412 L3.2,2.412 L6.468,6.39120312 C6.6476393,6.61114284 6.7457105,6.88642783 6.74559375,7.17040625 L6.74559375,13.9944062 C6.74559375,14.2184062 6.56720313,14.4 6.34559375,14.4 C6.1232273,14.3982374 5.94426829,14.2167757 5.94559375,13.9944062 L5.94559375,7.17040625 C5.94572412,7.07597836 5.91322382,6.98440566 5.85359375,6.9111875 L2.58559375,2.9311875 C2.46542146,2.78455208 2.39982928,2.60077468 2.39999967,2.4111875 C2.39999967,1.964 2.75840625,1.6 3.2,1.6 L12.692,1.6 C12.8791875,1.6 13.06,1.66640625 13.204,1.788 C13.5432031,2.0751875 13.5895938,2.58720313 13.3064063,2.932 L10.0384063,6.91120312 C9.97848732,6.98430676 9.9456963,7.07588425 9.94559375,7.17040625 L9.94559375,7.592 Z M9.2,9.312 L13.2,9.312 C13.4207969,9.312 13.6,9.49440625 13.6,9.71840625 C13.6,9.94240625 13.4207969,10.124 13.2,10.124 L9.2,10.124 C8.97763355,10.1222374 8.79867454,9.94077573 8.79999268,9.71840625 C8.79999268,9.49440625 8.97920312,9.312 9.2,9.312 Z M9.2,10.936 L13.2,10.936 C13.4207969,10.936 13.6,11.1175937 13.6,11.3415937 C13.6,11.5655937 13.4207969,11.748 13.2,11.748 L9.2,11.748 C9.09306282,11.7471538 8.99084203,11.70386 8.91582675,11.6276433 C8.84081148,11.5514266 8.7991471,11.4485309 8.79998716,11.3415937 C8.79998716,11.1175937 8.97920312,10.936 9.2,10.936 L9.2,10.936 Z M9.2,12.56 L13.2,12.56 C13.4207969,12.56 13.6,12.7415937 13.6,12.9655937 C13.6,13.1895937 13.4207969,13.3712031 13.2,13.3712031 L9.2,13.3712031 C8.97762741,13.3694405 8.79866589,13.1879693 8.79999259,12.9655937 C8.79999259,12.7415937 8.97920312,12.5591875 9.2,12.5591875 L9.2,12.56 Z" id="形状"></path>
            </g>
        </g>
    </g>
</svg>