<svg width="45" height="61" viewBox="0 0 45 61" fill="none" xmlns="http://www.w3.org/2000/svg">
<mask id="mask0_2001_539" style="mask-type:luminance" maskUnits="userSpaceOnUse" x="0" y="0" width="45" height="61">
<rect width="45" height="61" fill="white"/>
</mask>
<g mask="url(#mask0_2001_539)">
<path fill-rule="evenodd" clip-rule="evenodd" d="M36.0103 40.8092C36.1925 40.6809 36.3677 40.5429 36.5353 40.3958C44.153 34.268 46.9893 23.8937 43.5608 14.6986C40.1323 5.50346 31.2188 -0.421106 21.482 0.0234004C11.7452 0.467907 3.39975 7.18038 0.810192 16.6503C-1.77936 26.1201 1.976 36.1935 10.1123 41.6021C13.2088 43.9164 21.786 51.2613 22.5022 61.9802C22.5074 62.0059 22.5074 62.0285 22.5074 62.0558C22.6109 59.4172 23.8251 49.4919 35.7613 40.9906C35.7868 40.9721 35.8124 40.9537 35.838 40.9353C35.8958 40.8937 35.9536 40.8522 36.0103 40.8092ZM22.5052 62.7345C22.5052 62.7345 22.4932 62.4903 22.5104 62.0542C23.3759 75.0232 22.5052 62.7345 22.5052 62.7345Z" fill="#6EA0FF"/>
</g>
<rect opacity="0.01" x="10" y="9" width="25" height="25" fill="black"/>
<path d="M22.6749 29.3248C22.1426 29.3167 21.6332 29.1067 21.2499 28.7373L20.4499 28.2373C20.2011 27.9894 19.7986 27.9894 19.5499 28.2373L18.7499 28.7373C18.3766 29.1144 17.868 29.3266 17.3374 29.3266C16.8067 29.3266 16.2982 29.1144 15.9249 28.7373L15.1249 28.2373C14.8761 27.9894 14.4736 27.9894 14.2249 28.2373L13.1999 28.9998C13.04 29.1602 12.8124 29.2333 12.589 29.1961C12.3657 29.1589 12.1741 29.0159 12.0749 28.8123C11.8357 28.3567 11.9002 27.801 12.2374 27.4123L13.2624 26.6748C14.0501 25.9014 15.3122 25.9014 16.0999 26.6748L16.8874 27.1873C17.1455 27.424 17.5418 27.424 17.7999 27.1873L18.5874 26.6748C19.3708 25.9028 20.6289 25.9028 21.4124 26.6748L22.2124 27.1873C22.4705 27.424 22.8668 27.424 23.1249 27.1873L23.9124 26.6748C24.6958 25.9028 25.9539 25.9028 26.7374 26.6748L27.5374 27.1873C27.7913 27.4224 28.1834 27.4224 28.4374 27.1873L29.2374 26.6748C30.0208 25.9028 31.2789 25.9028 32.0624 26.6748L32.8624 27.1873C33.194 27.5736 33.2583 28.1224 33.0249 28.5748C32.9211 28.7764 32.7291 28.9179 32.5058 28.9571C32.2825 28.9964 32.0537 28.9289 31.8874 28.7748L31.0999 28.2748C30.8468 28.0254 30.4404 28.0254 30.1874 28.2748L29.3999 28.7748C29.0266 29.1519 28.518 29.3641 27.9874 29.3641C27.4568 29.3641 26.9482 29.1519 26.5749 28.7748L25.7749 28.2748C25.5261 28.0269 25.1236 28.0269 24.8749 28.2748L24.0749 28.7748C23.7021 29.1448 23.2001 29.3555 22.6749 29.3623V29.3248Z" fill="white"/>
<path fill-rule="evenodd" clip-rule="evenodd" d="M25.6992 15.5001C22.7992 13.3251 17.1992 13.3751 17.1992 13.3751V11.2876C17.1856 10.7057 16.7062 10.2431 16.1242 10.2501H11.8242V12.3251H13.9742C14.5415 12.3451 14.9929 12.8075 14.9992 13.3751V17.5251C14.996 17.8058 14.8804 18.0735 14.6785 18.2684C14.4765 18.4633 14.2048 18.5693 13.9242 18.5626H11.8242V20.6376H16.1242C16.7062 20.6446 17.1856 20.182 17.1992 19.6001V17.5251C18.4704 17.8286 19.631 18.4825 20.5492 19.4126C21.7178 20.9618 22.3968 22.8248 22.4992 24.7626C23.6722 25.2997 24.9632 25.5277 26.2492 25.4251C27.8725 25.412 29.4807 25.1115 30.9992 24.5376C30.589 20.9115 28.6636 17.6283 25.6992 15.5001ZM22.6746 32.7506L22.6679 32.7505C23.1904 32.7396 23.6892 32.5295 24.0621 32.1631L24.8621 31.6631C25.1108 31.4151 25.5133 31.4151 25.7621 31.6631L26.5621 32.1631C26.9353 32.5402 27.4439 32.7524 27.9746 32.7524C28.5052 32.7524 29.0138 32.5402 29.3871 32.1631L30.1746 31.6631C30.4276 31.4137 30.834 31.4137 31.0871 31.6631L31.8746 32.1631C32.0386 32.3224 32.2692 32.3934 32.4944 32.3538C32.7197 32.3142 32.9122 32.1688 33.0121 31.9631C33.2455 31.5106 33.1812 30.9618 32.8496 30.5756L32.0496 30.0756C31.6763 29.6985 31.1677 29.4863 30.6371 29.4863C30.1064 29.4863 29.5978 29.6985 29.2246 30.0756L28.4246 30.5756C28.1706 30.8106 27.7785 30.8106 27.5246 30.5756L26.7246 30.0756C26.3513 29.6985 25.8427 29.4863 25.3121 29.4863C24.7814 29.4863 24.2728 29.6985 23.8996 30.0756L23.1121 30.5756C22.8539 30.8123 22.4577 30.8123 22.1996 30.5756L21.3996 30.0756C21.0263 29.6985 20.5177 29.4863 19.9871 29.4863C19.4564 29.4863 18.9478 29.6985 18.5746 30.0756L17.7871 30.5756C17.5289 30.8123 17.1327 30.8123 16.8746 30.5756L16.0871 30.0756C15.7116 29.6977 15.201 29.4852 14.6683 29.4852C14.1356 29.4852 13.625 29.6977 13.2496 30.0756L12.2246 30.8006C11.8874 31.1893 11.8229 31.7449 12.0621 32.2006C12.1629 32.4018 12.3528 32.5435 12.5744 32.5829C12.7959 32.6223 13.0231 32.5547 13.1871 32.4006L14.2246 31.6631C14.4733 31.4151 14.8758 31.4151 15.1246 31.6631L15.9246 32.1631C16.2978 32.5402 16.8064 32.7524 17.3371 32.7524C17.8677 32.7524 18.3763 32.5402 18.7496 32.1631L19.5496 31.6631C19.7983 31.4151 20.2008 31.4151 20.4496 31.6631L21.2496 32.1631C21.6313 32.5309 22.138 32.7407 22.6679 32.7505L22.6621 32.7506H22.6746ZM28.3372 18.7003H25.0872V19.4128H28.3372V18.7003ZM23.599 18.4379C23.712 18.4962 23.8355 18.5587 23.9626 18.623L23.9626 18.623C24.2715 18.7794 24.601 18.9462 24.849 19.0879L24.3365 19.7379C24.1183 19.5716 23.6756 19.319 23.3457 19.1308L23.3455 19.1307C23.2786 19.0925 23.2163 19.057 23.1615 19.0254L23.599 18.4379ZM24.4488 20.9006C24.1113 20.7131 23.5988 20.4506 23.1988 20.2506L22.8238 20.8381C23.0129 20.9909 23.291 21.1437 23.5422 21.2817L23.5422 21.2817L23.5422 21.2817C23.7226 21.3808 23.8891 21.4722 23.9988 21.5506L24.4488 20.9006ZM23.7489 24.275L23.0364 23.7625C23.3614 23.3125 23.8739 22.5125 24.2864 21.75L24.8614 22.2625C24.5308 22.9549 24.1593 23.6269 23.7489 24.275ZM28.3621 22.0131V21.6881L26.0496 21.7506L26.2496 20.9631H28.7496V20.2506H24.6996V20.9006H25.5371C25.5124 21.0044 25.4877 21.1106 25.4629 21.2172C25.3622 21.65 25.2599 22.0897 25.1496 22.4006H27.4371C27.3746 23.0506 27.3121 23.3756 27.1871 23.5006C27.0883 23.5559 26.9743 23.5779 26.8621 23.5631C26.4446 23.5661 26.0272 23.5452 25.6121 23.5006C25.7939 23.6972 25.9079 23.9469 25.9371 24.2131H27.1871C27.4723 24.2366 27.7552 24.1468 27.9746 23.9631C28.1621 23.7631 28.2996 23.2631 28.3621 22.0131Z" fill="white"/>
</svg>
