<?xml version="1.0" encoding="UTF-8"?>
<svg width="18px" height="18px" viewBox="0 0 18 18" version="1.1" xmlns="http://www.w3.org/2000/svg" xmlns:xlink="http://www.w3.org/1999/xlink">
    <title>地下水污染</title>
    <g id="app界面" stroke="none" stroke-width="1" fill="none" fill-rule="evenodd">
        <g id="切图" transform="translate(-781.000000, -59.000000)">
            <g id="地下水污染" transform="translate(781.000000, 59.000000)">
                <circle id="椭圆形备份-3" fill="#6EA0FF" cx="9" cy="9" r="9"></circle>
                <g id="沙盘icon-污水排口" transform="translate(4.800000, 3.600000)" fill="#FFFFFF" fill-rule="nonzero">
                    <rect id="矩形" opacity="0" x="0" y="0" width="9.6" height="9.6"></rect>
                    <path d="M4.8672,7.8048 C4.66279827,7.80167706 4.46721124,7.7210403 4.32,7.5792 L4.0128,7.3872 C3.91726863,7.29199862 3.76273137,7.29199862 3.6672,7.3872 L3.36,7.5792 C3.21665566,7.72400903 3.02135783,7.80548615 2.8176,7.80548615 C2.61384217,7.80548615 2.41854434,7.72400903 2.2752,7.5792 L1.968,7.3872 C1.87246863,7.29199862 1.71793137,7.29199862 1.6224,7.3872 L1.2288,7.68 C1.16740778,7.74158756 1.08001434,7.76967066 0.994237577,7.75537454 C0.908460818,7.74107841 0.834899374,7.68616949 0.7968,7.608 C0.704960988,7.43303856 0.729726589,7.21967339 0.8592,7.0704 L1.2528,6.7872 C1.55528158,6.49019543 2.03991842,6.49019543 2.3424,6.7872 L2.6448,6.984 C2.7439129,7.07490332 2.8960871,7.07490332 2.9952,6.984 L3.2976,6.7872 C3.59844697,6.49076588 4.08155303,6.49076588 4.3824,6.7872 L4.6896,6.984 C4.7887129,7.07490332 4.9408871,7.07490332 5.04,6.984 L5.3424,6.7872 C5.64324697,6.49076588 6.12635303,6.49076588 6.4272,6.7872 L6.7344,6.984 C6.83192123,7.07425728 6.98247877,7.07425728 7.08,6.984 L7.3872,6.7872 C7.68804697,6.49076588 8.17115303,6.49076588 8.472,6.7872 L8.7792,6.984 C8.90656111,7.13232067 8.93124282,7.34306446 8.8416,7.5168 C8.80176465,7.59421402 8.72800805,7.64853529 8.64226139,7.66361163 C8.55651473,7.67868796 8.46865244,7.6527832 8.4048,7.5936 L8.1024,7.4016 C8.00522846,7.30583772 7.84917154,7.30583772 7.752,7.4016 L7.4496,7.5936 C7.30625566,7.73840903 7.11095783,7.81988615 6.9072,7.81988615 C6.70344217,7.81988615 6.50814434,7.73840903 6.3648,7.5936 L6.0576,7.4016 C5.96206863,7.30639862 5.80753137,7.30639862 5.712,7.4016 L5.4048,7.5936 C5.26163963,7.7356754 5.06887642,7.8165671 4.8672,7.8192 L4.8672,7.8048 Z" id="路径"></path>
                    <path d="M4.8672,9.12 C4.66279827,9.11687706 4.46721124,9.0362403 4.32,8.8944 L4.0128,8.7024 C3.91726863,8.60719862 3.76273137,8.60719862 3.6672,8.7024 L3.36,8.8944 C3.21665566,9.03920903 3.02135783,9.12068615 2.8176,9.12068615 C2.61384217,9.12068615 2.41854434,9.03920903 2.2752,8.8944 L1.968,8.7024 C1.87246863,8.60719862 1.71793137,8.60719862 1.6224,8.7024 L1.224,8.9856 C1.16103343,9.04478489 1.07380716,9.07074354 0.988725698,9.05561795 C0.903644234,9.04049235 0.830709583,8.98606065 0.792,8.9088 C0.700160988,8.73383856 0.724926589,8.52047339 0.8544,8.3712 L1.248,8.0928 C1.39216721,7.94770341 1.58825855,7.86611041 1.7928,7.86611041 C1.99734145,7.86611041 2.19343279,7.94770341 2.3376,8.0928 L2.64,8.2848 C2.7391129,8.37570332 2.8912871,8.37570332 2.9904,8.2848 L3.2928,8.0928 C3.43614434,7.94799097 3.63144217,7.86651385 3.8352,7.86651385 C4.03895783,7.86651385 4.23425566,7.94799097 4.3776,8.0928 L4.6848,8.2848 C4.7839129,8.37570332 4.9360871,8.37570332 5.0352,8.2848 L5.3376,8.0928 C5.48094434,7.94799097 5.67624217,7.86651385 5.88,7.86651385 C6.08375783,7.86651385 6.27905566,7.94799097 6.4224,8.0928 L6.7296,8.2848 C6.82712123,8.37505728 6.97767877,8.37505728 7.0752,8.2848 L7.3824,8.0928 C7.52574434,7.94799097 7.72104217,7.86651385 7.9248,7.86651385 C8.12855783,7.86651385 8.32385566,7.94799097 8.4672,8.0928 L8.7744,8.2848 C8.90176111,8.43312067 8.92644282,8.64386446 8.8368,8.8176 C8.79846072,8.89661247 8.72452269,8.95241782 8.63802654,8.96762594 C8.55153039,8.98283405 8.46299133,8.9555961 8.4,8.8944 L8.0976,8.7024 C8.00042846,8.60663772 7.84437154,8.60663772 7.7472,8.7024 L7.4448,8.8944 C7.30145566,9.03920903 7.10615783,9.12068615 6.9024,9.12068615 C6.69864217,9.12068615 6.50334434,9.03920903 6.36,8.8944 L6.0528,8.7024 C5.95726863,8.60719862 5.80273137,8.60719862 5.7072,8.7024 L5.4,8.8944 C5.25627833,9.03563387 5.0638691,9.11637703 4.8624,9.12 L4.8672,9.12 Z M6.0288,2.496 C4.9152,1.6608 2.7648,1.68 2.7648,1.68 L2.7648,0.8784 C2.75955703,0.654946602 2.5754987,0.477308912 2.352,0.479969824 L0.7008,0.479969824 L0.7008,1.2768 L1.5264,1.2768 C1.7442414,1.28447976 1.9175709,1.46203681 1.92,1.68 L1.92,3.2736 C1.91874749,3.3813847 1.87438876,3.48418012 1.79682752,3.55903574 C1.71926627,3.63389136 1.61496125,3.67457375 1.5072,3.672 L0.7008,3.672 L0.7008,4.4688 L2.352,4.4688 C2.5754987,4.47149109 2.75955703,4.2938534 2.7648,4.0704 L2.7648,3.2736 C3.252945,3.39014197 3.69862115,3.64125055 4.0512,3.9984 C4.49992579,4.59329175 4.76067719,5.3086866 4.8,6.0528 C5.25044224,6.25904136 5.74615797,6.34661781 6.24,6.3072 C6.86335082,6.30216389 7.48088496,6.18678251 8.064,5.9664 C7.90646424,4.57398591 7.16710832,3.31324457 6.0288,2.496 Z M5.7936,3.7248 L7.0416,3.7248 L7.0416,3.9984 L5.7936,3.9984 L5.7936,3.7248 Z M5.2224,3.624 C5.3712,3.7008 5.568,3.7968 5.7024,3.8736 L5.5056,4.1232 C5.4048,4.0464 5.1792,3.9216 5.0544,3.8496 L5.2224,3.624 Z M5.0688,4.32 C5.2224,4.3968 5.4192,4.4976 5.5488,4.5696 L5.376,4.8192 C5.2752,4.7472 5.0496,4.6464 4.9248,4.5456 L5.0688,4.32 Z M5.28,5.8656 L5.0064,5.6688 C5.1312,5.496 5.328,5.1888 5.4864,4.896 L5.7072,5.0928 C5.58026602,5.35865139 5.43761354,5.61670812 5.28,5.8656 Z M7.0512,4.872 L7.0512,4.9968 C7.0272,5.4768 6.9744,5.6688 6.9024,5.7456 C6.81815463,5.81613649 6.70950416,5.8506287 6.6,5.8416 L6.12,5.8416 C6.10877965,5.7393867 6.06503192,5.6434782 5.9952,5.568 C6.15461322,5.58512391 6.31487374,5.59313694 6.4752,5.592 C6.51829954,5.59766427 6.56207548,5.58924582 6.6,5.568 C6.648,5.52 6.672,5.3952 6.696,5.1456 L5.8176,5.1456 C5.8704,4.9968 5.9184,4.7712 5.9664,4.5696 L5.6448,4.5696 L5.6448,4.32 L7.2,4.32 L7.2,4.5936 L6.24,4.5936 L6.1632,4.896 L7.0512,4.872 Z" id="形状"></path>
                </g>
            </g>
        </g>
    </g>
</svg>