<?xml version="1.0" encoding="UTF-8"?>
<svg width="82px" height="33px" viewBox="0 0 82 33" version="1.1" xmlns="http://www.w3.org/2000/svg" xmlns:xlink="http://www.w3.org/1999/xlink">
    <title>查看</title>
    <g id="app界面" stroke="none" stroke-width="1" fill="none" fill-rule="evenodd">
        <g id="切图" transform="translate(-691.000000, -276.000000)">
            <g id="查看" transform="translate(691.000000, 276.000000)">
                <g id="编组-5" transform="translate(16.000000, 7.000000)" fill="#FA8361">
                    <text id="查看" font-family="PingFangSC-Regular, PingFang SC" font-size="14" font-weight="normal">
                        <tspan x="22" y="15">详情</tspan>
                    </text>
                    <g id="查看" fill-rule="nonzero">
                        <rect id="矩形" opacity="0" x="0" y="0" width="20" height="20"></rect>
                        <path d="M11.871875,17.4991602 L4.19324219,17.4991602 C3.74331858,17.4991033 3.31185958,17.3202504 2.99384744,17.0019745 C2.67583531,16.6836986 2.49734015,16.2520915 2.49765625,15.802168 L2.49765625,4.19501953 C2.49731943,3.74505555 2.6757961,3.31339824 2.99380205,2.99505894 C3.31180801,2.67671965 3.7432781,2.49779084 4.19324219,2.49765625 L15.8003906,2.49765625 C16.2507161,2.49651794 16.6827883,2.67555112 17.000332,2.99486328 C17.3206445,3.31517578 17.4957031,3.74113281 17.495918,4.19431641 L17.4695312,11.8715234 L17.4695312,11.8735742 C17.4716566,12.217189 17.7505272,12.4947731 18.0941482,12.4953095 C18.4377691,12.4958459 18.717505,12.2191338 18.7207031,11.8755273 L18.7465823,4.19707031 L18.7465823,4.19501953 C18.7469397,3.41353138 18.4366532,2.66394821 17.8840576,2.11135258 C17.3314619,1.55875695 16.5818788,1.24847041 15.8003906,1.24882726 L4.19324219,1.24882726 C3.41184401,1.24823086 2.66230417,1.55849732 2.1099388,2.11119612 C1.55757342,2.66389493 1.24775933,3.41362185 1.24882537,4.19501953 L1.24882537,15.8021484 C1.24785793,16.5834954 1.55772629,17.3331388 2.11009787,17.8857595 C2.66246945,18.4383802 3.41197299,18.7485866 4.19332031,18.7479697 L11.871875,18.7479697 C12.2167293,18.7479697 12.496289,18.468409 12.496289,18.1235547 C12.496289,17.7787003 12.2167293,17.4991406 11.871875,17.4991406 L11.871875,17.4991602 Z" id="路径"></path>
                        <path d="M18.565332,17.6822461 L16.1811133,15.2980469 C17.3125633,13.7074627 17.0363696,11.515197 15.5457567,10.2549548 C14.0551439,8.99471262 11.8474762,9.0869918 10.467234,10.467234 C9.0869918,11.8474762 8.99471262,14.0551439 10.2549548,15.5457567 C11.515197,17.0363696 13.7074627,17.3125633 15.2980469,16.1811133 L17.6822266,18.565332 C17.926084,18.8091895 18.3214551,18.8091895 18.5653125,18.565332 C18.8091699,18.3214746 18.8091699,17.9261035 18.5653125,17.6822461 L18.565332,17.6822461 Z M13.1249414,15.6255859 C11.9319964,15.6255859 10.9051969,14.7828452 10.6724909,13.6128171 C10.4397848,12.4427891 11.0659839,11.2713132 12.1681307,10.8148154 C13.2702774,10.3583177 14.5414098,10.7439386 15.204156,11.7358485 C15.8669022,12.7277584 15.7366788,14.0496974 14.893125,14.8932227 C14.4252026,15.3636687 13.7885266,15.627375 13.125,15.6255859 L13.1249414,15.6255859 Z M15.0000977,6.87917969 C15.3449023,6.87917969 15.6245117,6.59787109 15.6245117,6.25306641 C15.6245117,5.90826172 15.3450195,5.62660156 15.0001562,5.62654297 L5.00005859,5.62328125 C4.65500819,5.62382005 4.37564453,5.90371871 4.37564453,6.24876953 C4.37564453,6.59363281 4.65509766,6.87558594 4.99998047,6.87558594 L15.0000977,6.87917969 Z M8.75,10.6256445 C9.09485436,10.6256445 9.37441406,10.3460848 9.37441406,10.0012305 C9.37441406,9.6563761 9.09485436,9.37681641 8.75,9.37681641 L5,9.37681641 C4.77713116,9.37681641 4.57119185,9.4957155 4.45975743,9.68872558 C4.34832301,9.88173565 4.34832301,10.1195339 4.45975743,10.312544 C4.57119185,10.505554 4.77713116,10.6244531 5,10.6244531 L8.75,10.6256445 Z M5.00033203,13.1233008 C4.65556935,13.1233008 4.37608398,13.4027862 4.37608398,13.7475488 C4.37608398,14.0923115 4.65556935,14.3717969 5.00033203,14.3717969 L7.50033203,14.3721484 C7.72464144,14.3743224 7.9328484,14.255901 8.04563535,14.0619976 C8.15842231,13.8680942 8.15842231,13.628566 8.04563535,13.4346626 C7.9328484,13.2407591 7.72464144,13.1223378 7.50033203,13.1245117 L5.00033203,13.1233008 Z" id="形状"></path>
                    </g>
                </g>
                <rect id="矩形备份" stroke="#FA8361" x="0.5" y="0.5" width="81" height="32" rx="16"></rect>
            </g>
        </g>
    </g>
</svg>