<?xml version="1.0" encoding="UTF-8"?>
<svg width="18px" height="18px" viewBox="0 0 18 18" version="1.1" xmlns="http://www.w3.org/2000/svg" xmlns:xlink="http://www.w3.org/1999/xlink">
    <title>土壤污染</title>
    <g id="app界面" stroke="none" stroke-width="1" fill="none" fill-rule="evenodd">
        <g id="切图" transform="translate(-820.000000, -59.000000)">
            <g id="土壤污染" transform="translate(820.000000, 59.000000)">
                <circle id="椭圆形" fill="#FA8361" cx="9" cy="9" r="9"></circle>
                <g id="化学品生产企业" transform="translate(3.920000, 3.920000)" fill="#FFFFFF" fill-rule="nonzero">
                    <g id="土壤水分">
                        <rect id="矩形" opacity="0" x="0.0351830831" y="0" width="9.56481692" height="9.56481692"></rect>
                        <g id="资产：土地全生命周期（合同）监管" transform="translate(0.000000, 0.118003)">
                            <rect id="矩形" opacity="0" x="0" y="0" width="9.56481692" height="9.56481692"></rect>
                            <path d="M2.44585632,1.02479914 C2.10953083,1.02506494 1.82851342,1.28094305 1.79682185,1.61577219 L1.54745474,4.34857302 L4.19485408,4.34857302 L4.49888263,1.02479914 L2.44585632,1.02479914 Z M4.91563403,6.69879052 C4.92128494,5.9187013 5.33776352,5.19937033 6.01147819,4.80607697 C6.68519286,4.41278362 7.51634298,4.40378833 8.19841183,4.78240846 L7.91146732,1.62943755 C7.88657218,1.29050518 7.60567733,1.02744261 7.26584218,1.02479914 L5.16841981,1.02479914 L4.48521727,8.3692148 L5.66715402,8.3692148 C5.18610471,7.94785202 4.91185756,7.33827529 4.91563403,6.69879052 L4.91563403,6.69879052 Z M1.24684487,7.6586722 C1.23055211,7.84094202 1.29155365,8.02167591 1.4149705,8.15679076 C1.53838735,8.2919056 1.7128736,8.36898007 1.89587001,8.3692148 L3.83274544,8.3692148 L4.13677398,5.03177557 L1.4859653,5.03177557 L1.24684487,7.6586722 Z" id="形状"></path>
                            <path d="M8.26331995,5.44852697 C7.67511039,4.92531804 6.80143265,4.88380899 6.16626852,5.34889455 C5.53110438,5.81398011 5.30687039,6.6594119 5.62804924,7.37814844 C5.94922809,8.09688498 6.72863514,8.49382382 7.49882676,8.33090382 C8.26901838,8.16798382 8.82092455,7.48942993 8.82354361,6.70219985 C8.82338639,6.22369717 8.61968497,5.76785253 8.26331995,5.44852697 L8.26331995,5.44852697 Z M8.31114403,7.31366627 C8.30250514,7.47189479 8.1996456,7.60943981 8.05031231,7.66245361 C7.90097902,7.71546741 7.73441619,7.67356819 7.62794149,7.55620536 C7.32249402,7.73255554 6.94616722,7.73255554 6.64071975,7.55620536 C6.53374608,7.67119959 6.36856011,7.71142681 6.22069158,7.65849349 C6.07282304,7.60556018 5.97069335,7.4696405 5.96100034,7.31288246 C5.95130733,7.15612441 6.03591407,7.00865803 6.17613492,6.93791094 C6.06619007,6.47527235 6.30167759,5.99999415 6.73636792,5.8072076 C6.76229728,5.61195073 6.9288176,5.46608181 7.1257886,5.46608181 C7.32275961,5.46608181 7.48927993,5.61195073 7.51520929,5.8072076 C7.95719337,5.99832923 8.19680666,6.48044101 8.08227029,6.94815762 C8.2149619,7.01139437 8.30174703,7.14288623 8.30772536,7.28975422 L8.31114403,7.31366627 Z" id="形状"></path>
                            <path d="M7.48446924,6.02925333 C7.42126065,6.17075545 7.28076658,6.26187108 7.1257886,6.26187108 C6.97081062,6.26187108 6.83031656,6.17075545 6.76710797,6.02925333 C6.44687163,6.19727916 6.28530203,6.56435771 6.37768728,6.9139989 C6.48646089,6.92630622 6.585166,6.98344162 6.65001323,7.07163462 C6.71486045,7.15982763 6.73996775,7.27107859 6.71928388,7.37857438 C6.96604958,7.52786173 7.27528094,7.52786173 7.52204664,7.37857438 C7.50136277,7.27107859 7.52647007,7.15982763 7.59131729,7.07163462 C7.65616452,6.98344162 7.75486963,6.92630622 7.86364324,6.9139989 C7.9577479,6.56683576 7.80076212,6.20053304 7.48446924,6.02925333 L7.48446924,6.02925333 Z" id="路径"></path>
                        </g>
                    </g>
                </g>
            </g>
        </g>
    </g>
</svg>