<svg width="24" height="24" viewBox="0 0 24 24" fill="none" xmlns="http://www.w3.org/2000/svg">
<rect x="0.5" y="0.5" width="23" height="23" rx="3.5" fill="#FAB961" stroke="#E8A30F"/>
<rect opacity="0.01" x="4.05859" y="4" width="15.9414" height="15.805" fill="black"/>
<rect opacity="0.01" x="4" y="4.19531" width="15.9414" height="15.805" fill="black"/>
<path fill-rule="evenodd" clip-rule="evenodd" d="M8.0765 5.88867C7.51596 5.88911 7.0476 6.31193 6.99478 6.8652L6.57917 11.3809H10.9915L11.4982 5.88867H8.0765ZM12.1924 15.2644C12.2018 13.9754 12.8959 12.7868 14.0188 12.1369C15.1416 11.487 16.5269 11.4722 17.6637 12.0978L17.1854 6.88778C17.1439 6.32773 16.6758 5.89304 16.1094 5.88867H12.6137L11.475 18.0247H13.4449C12.6431 17.3284 12.1861 16.3211 12.1924 15.2644ZM6.35777 17.6742C6.15208 17.451 6.05041 17.1523 6.07756 16.8511L6.4761 12.5104H10.8941L10.3874 18.0252H7.15927C6.85428 18.0248 6.56347 17.8975 6.35777 17.6742Z" fill="white"/>
<path fill-rule="evenodd" clip-rule="evenodd" d="M14.2772 13.0352C15.3358 12.2666 16.7919 12.3352 17.7723 13.1998C18.3662 13.7274 18.7057 14.4807 18.706 15.2714C18.7016 16.5722 17.7818 17.6935 16.4981 17.9627C15.2145 18.2319 13.9155 17.576 13.3802 16.3883C12.8449 15.2007 13.2186 13.8037 14.2772 13.0352ZM17.4175 16.8574C17.6664 16.7698 17.8378 16.5425 17.8522 16.281L17.8465 16.2415C17.8366 15.9988 17.6919 15.7816 17.4708 15.6771C17.6617 14.9042 17.2623 14.1076 16.5257 13.7917C16.4825 13.4691 16.2049 13.2281 15.8767 13.2281C15.5484 13.2281 15.2708 13.4691 15.2276 13.7917C14.5031 14.1103 14.1107 14.8957 14.2939 15.6601C14.0602 15.777 13.9192 16.0207 13.9353 16.2797C13.9515 16.5388 14.1217 16.7634 14.3682 16.8508C14.6146 16.9383 14.8899 16.8718 15.0682 16.6818C15.5773 16.9732 16.2045 16.9732 16.7136 16.6818C16.891 16.8757 17.1686 16.945 17.4175 16.8574Z" fill="white"/>
<path d="M16.4736 14.1582C16.3682 14.392 16.1341 14.5426 15.8758 14.5426C15.6175 14.5426 15.3833 14.392 15.278 14.1582C14.7443 14.4359 14.475 15.0424 14.629 15.6202C14.8102 15.6405 14.9748 15.7349 15.0828 15.8806C15.1909 16.0264 15.2328 16.2102 15.1983 16.3878C15.6096 16.6345 16.1249 16.6345 16.5362 16.3878C16.5017 16.2102 16.5436 16.0264 16.6517 15.8806C16.7598 15.7349 16.9243 15.6405 17.1055 15.6202C17.2624 15.0465 17.0007 14.4412 16.4736 14.1582V14.1582Z" fill="white"/>
</svg>
