<svg width="46" height="61" viewBox="0 0 46 61" fill="none" xmlns="http://www.w3.org/2000/svg">
<mask id="mask0_7_2675" style="mask-type:luminance" maskUnits="userSpaceOnUse" x="0" y="0" width="46" height="61">
<rect x="0.5" width="45" height="61" fill="white"/>
</mask>
<g mask="url(#mask0_7_2675)">
<path fill-rule="evenodd" clip-rule="evenodd" d="M36.5103 40.8092C36.6925 40.6809 36.8677 40.5429 37.0353 40.3958C44.653 34.268 47.4893 23.8937 44.0608 14.6986C40.6323 5.50346 31.7188 -0.421106 21.982 0.0234004C12.2452 0.467907 3.89975 7.18038 1.31019 16.6503C-1.27936 26.1201 2.476 36.1935 10.6123 41.6021C13.7088 43.9164 22.286 51.2613 23.0022 61.9802C23.0074 62.0059 23.0074 62.0285 23.0074 62.0558C23.1109 59.4172 24.3251 49.4919 36.2613 40.9906C36.2868 40.9721 36.3124 40.9537 36.338 40.9353C36.3958 40.8937 36.4536 40.8522 36.5103 40.8092ZM23.0052 62.7345C23.0052 62.7345 22.9932 62.4903 23.0104 62.0542C23.8759 75.0232 23.0052 62.7345 23.0052 62.7345Z" fill="#FAB961"/>
</g>
<rect opacity="0.01" x="8.60254" y="8" width="27.8974" height="27.8974" fill="black"/>
<rect opacity="0.01" x="8.5" y="8.34375" width="27.8974" height="27.8974" fill="black"/>
<path fill-rule="evenodd" clip-rule="evenodd" d="M15.6336 11.333C14.6526 11.3338 13.833 12.0801 13.7406 13.0567L13.0132 21.0273H20.7348L21.6216 11.333H15.6336ZM22.8371 27.8821C22.8536 25.6069 24.0683 23.5088 26.0333 22.3617C27.9983 21.2146 30.4225 21.1884 32.4119 22.2927L31.575 13.0965C31.5023 12.108 30.6831 11.3407 29.6919 11.333H23.5744L21.5817 32.7542H25.029C23.626 31.5252 22.8261 29.7473 22.8371 27.8821ZM12.6268 32.1347C12.2669 31.7406 12.0889 31.2134 12.1365 30.6818L12.8339 23.02H20.5654L19.6787 32.7542H14.0295C13.4957 32.7535 12.9868 32.5287 12.6268 32.1347Z" fill="white"/>
<path fill-rule="evenodd" clip-rule="evenodd" d="M26.4849 23.9451C28.3374 22.5886 30.8856 22.7096 32.6013 24.2357C33.6407 25.167 34.2348 26.4966 34.2352 27.8922C34.2276 30.1883 32.6179 32.1674 30.3715 32.6426C28.1251 33.1178 25.8518 31.96 24.9151 29.8637C23.9783 27.7674 24.6323 25.3016 26.4849 23.9451ZM31.98 30.6929C32.4155 30.5383 32.7155 30.1371 32.7407 29.6756L32.7308 29.6059C32.7133 29.1775 32.4602 28.794 32.0732 28.6096C32.4073 27.2454 31.7084 25.8392 30.4193 25.2818C30.3436 24.7123 29.858 24.2869 29.2835 24.2869C28.709 24.2869 28.2233 24.7123 28.1476 25.2818C26.8798 25.8441 26.193 27.2303 26.5136 28.5797C26.1047 28.786 25.8579 29.2162 25.8862 29.6734C25.9144 30.1306 26.2123 30.527 26.6436 30.6814C27.0749 30.8358 27.5567 30.7185 27.8687 30.3831C28.7596 30.8974 29.8572 30.8974 30.7481 30.3831C31.0586 30.7254 31.5444 30.8476 31.98 30.6929Z" fill="white"/>
<path d="M30.3298 25.9287C30.1454 26.3414 29.7356 26.6072 29.2836 26.6072C28.8316 26.6072 28.4218 26.3414 28.2375 25.9287C27.3034 26.4188 26.8322 27.4894 27.1017 28.5092C27.4189 28.5451 27.7068 28.7118 27.8959 28.969C28.0851 29.2262 28.1583 29.5507 28.098 29.8642C28.8177 30.2997 29.7196 30.2997 30.4394 29.8642C30.379 29.5507 30.4523 29.2262 30.6414 28.969C30.8305 28.7118 31.1184 28.5451 31.4357 28.5092C31.7102 27.4967 31.2523 26.4283 30.3298 25.9287V25.9287Z" fill="white"/>
</svg>
