<svg width="24" height="24" viewBox="0 0 24 24" fill="none" xmlns="http://www.w3.org/2000/svg">
<rect x="0.5" y="0.5" width="23" height="23" rx="3.5" fill="#6EA0FF" stroke="#3479FA"/>
<rect opacity="0.01" x="5" y="5" width="14" height="14" fill="black"/>
<path d="M12.0982 16.3821C11.8002 16.3775 11.5149 16.2599 11.3002 16.0531L10.8522 15.7731C10.7129 15.6343 10.4876 15.6343 10.3482 15.7731L9.90024 16.0531C9.6912 16.2643 9.40639 16.3831 9.10924 16.3831C8.81209 16.3831 8.52728 16.2643 8.31824 16.0531L7.87024 15.7731C7.73092 15.6343 7.50556 15.6343 7.36624 15.7731L6.79224 16.2001C6.70271 16.2899 6.57526 16.3309 6.45017 16.31C6.32508 16.2892 6.2178 16.2091 6.16224 16.0951C6.02831 15.8399 6.06442 15.5288 6.25324 15.3111L6.82724 14.8981C7.26836 14.465 7.97512 14.465 8.41624 14.8981L8.85724 15.1851C9.00178 15.3177 9.2237 15.3177 9.36824 15.1851L9.80924 14.8981C10.248 14.4658 10.9525 14.4658 11.3912 14.8981L11.8392 15.1851C11.9838 15.3177 12.2057 15.3177 12.3502 15.1851L12.7912 14.8981C13.23 14.4658 13.9345 14.4658 14.3732 14.8981L14.8212 15.1851C14.9635 15.3167 15.183 15.3167 15.3252 15.1851L15.7732 14.8981C16.212 14.4658 16.9165 14.4658 17.3552 14.8981L17.8032 15.1851C17.989 15.4014 18.025 15.7087 17.8942 15.9621C17.8361 16.075 17.7286 16.1542 17.6035 16.1762C17.4785 16.1982 17.3504 16.1604 17.2572 16.0741L16.8162 15.7941C16.6745 15.6544 16.4469 15.6544 16.3052 15.7941L15.8642 16.0741C15.6552 16.2853 15.3704 16.4041 15.0732 16.4041C14.7761 16.4041 14.4913 16.2853 14.2822 16.0741L13.8342 15.7941C13.6949 15.6553 13.4696 15.6553 13.3302 15.7941L12.8822 16.0741C12.6735 16.2813 12.3924 16.3993 12.0982 16.4031V16.3821Z" fill="white"/>
<path fill-rule="evenodd" clip-rule="evenodd" d="M13.7925 8.64024C12.1685 7.42224 9.03246 7.45024 9.03246 7.45024V6.28124C9.02481 5.95537 8.7564 5.69631 8.43046 5.70024H6.02246V6.86224H7.22646C7.54415 6.87344 7.79692 7.13238 7.80046 7.45024V9.77424C7.79863 9.93143 7.73394 10.0813 7.62083 10.1905C7.50772 10.2997 7.35561 10.359 7.19846 10.3552H6.02246V11.5172H8.43046C8.7564 11.5212 9.02481 11.2621 9.03246 10.9362V9.77424C9.74434 9.9442 10.3943 10.3104 10.9085 10.8312C11.5629 11.6988 11.9431 12.7421 12.0005 13.8272C12.6574 14.128 13.3803 14.2557 14.1005 14.1982C15.0095 14.1909 15.9101 14.0226 16.7605 13.7012C16.5307 11.6706 15.4525 9.83205 13.7925 8.64024ZM12.0985 18.3002L12.0947 18.3002C12.3873 18.2941 12.6666 18.1764 12.8755 17.9712L13.3235 17.6912C13.4628 17.5524 13.6881 17.5524 13.8275 17.6912L14.2755 17.9712C14.4845 18.1824 14.7693 18.3012 15.0665 18.3012C15.3636 18.3012 15.6484 18.1824 15.8575 17.9712L16.2985 17.6912C16.4402 17.5516 16.6678 17.5516 16.8095 17.6912L17.2505 17.9712C17.3423 18.0605 17.4714 18.1002 17.5976 18.078C17.7237 18.0558 17.8315 17.9745 17.8875 17.8592C18.0182 17.6059 17.9822 17.2985 17.7965 17.0822L17.3485 16.8022C17.1394 16.5911 16.8546 16.4722 16.5575 16.4722C16.2603 16.4722 15.9755 16.5911 15.7665 16.8022L15.3185 17.0822C15.1762 17.2139 14.9567 17.2139 14.8145 17.0822L14.3665 16.8022C14.1574 16.5911 13.8726 16.4722 13.5755 16.4722C13.2783 16.4722 12.9935 16.5911 12.7845 16.8022L12.3435 17.0822C12.1989 17.2148 11.977 17.2148 11.8325 17.0822L11.3845 16.8022C11.1754 16.5911 10.8906 16.4722 10.5935 16.4722C10.2963 16.4722 10.0115 16.5911 9.80246 16.8022L9.36146 17.0822C9.21692 17.2148 8.995 17.2148 8.85046 17.0822L8.40946 16.8022C8.19922 16.5906 7.91325 16.4717 7.61496 16.4717C7.31667 16.4717 7.0307 16.5906 6.82046 16.8022L6.24646 17.2082C6.05765 17.4259 6.02153 17.7371 6.15546 17.9922C6.21191 18.1049 6.31828 18.1843 6.44235 18.2063C6.56643 18.2284 6.69363 18.1906 6.78546 18.1042L7.36646 17.6912C7.50578 17.5524 7.73114 17.5524 7.87046 17.6912L8.31846 17.9712C8.5275 18.1824 8.81231 18.3012 9.10946 18.3012C9.40661 18.3012 9.69142 18.1824 9.90046 17.9712L10.3485 17.6912C10.4878 17.5524 10.7131 17.5524 10.8525 17.6912L11.3005 17.9712C11.5142 18.1772 11.798 18.2947 12.0947 18.3002L12.0915 18.3002H12.0985ZM15.2695 10.4322H13.4495V10.8312H15.2695V10.4322ZM12.8201 10.3889L12.8201 10.3889C12.9931 10.4765 13.1776 10.5699 13.3165 10.6492L13.0295 11.0132C12.9073 10.9201 12.6593 10.7787 12.4746 10.6733C12.4371 10.6519 12.4022 10.632 12.3715 10.6142L12.6165 10.2852C12.6796 10.3178 12.7487 10.3528 12.8198 10.3888L12.8201 10.3889ZM13.0925 11.6642C12.9035 11.5592 12.6165 11.4122 12.3925 11.3002L12.1825 11.6292C12.2884 11.7148 12.4441 11.8004 12.5848 11.8776C12.6858 11.9331 12.779 11.9844 12.8405 12.0282L13.0925 11.6642ZM12.7005 13.5542L12.3015 13.2672C12.4835 13.0152 12.7705 12.5672 13.0015 12.1402L13.3235 12.4272C13.1383 12.8149 12.9303 13.1913 12.7005 13.5542ZM15.2835 12.2872V12.1052L13.9885 12.1402L14.1005 11.6992H15.5005V11.3002H13.2325V11.6642H13.7015C13.6876 11.7223 13.6738 11.7818 13.6599 11.8415C13.6035 12.0839 13.5462 12.3301 13.4845 12.5042H14.7655C14.7305 12.8682 14.6955 13.0502 14.6255 13.1202C14.5702 13.1512 14.5063 13.1635 14.4435 13.1552C14.2097 13.1569 13.9759 13.1452 13.7435 13.1202C13.8453 13.2303 13.9091 13.3702 13.9255 13.5192H14.6255C14.7852 13.5324 14.9436 13.4821 15.0665 13.3792C15.1715 13.2672 15.2485 12.9872 15.2835 12.2872Z" fill="white"/>
</svg>
