<svg width="46" height="61" viewBox="0 0 46 61" fill="none" xmlns="http://www.w3.org/2000/svg">
<mask id="mask0_2001_539" style="mask-type:luminance" maskUnits="userSpaceOnUse" x="0" y="0" width="46" height="61">
<rect x="0.5" width="45" height="61" fill="white"/>
</mask>
<g mask="url(#mask0_2001_539)">
<path fill-rule="evenodd" clip-rule="evenodd" d="M36.5103 40.8092C36.6925 40.6809 36.8677 40.5429 37.0353 40.3958C44.653 34.268 47.4893 23.8937 44.0608 14.6986C40.6323 5.50346 31.7188 -0.421106 21.982 0.0234004C12.2452 0.467907 3.89975 7.18038 1.31019 16.6503C-1.27936 26.1201 2.476 36.1935 10.6123 41.6021C13.7088 43.9164 22.286 51.2613 23.0022 61.9802C23.0074 62.0059 23.0074 62.0285 23.0074 62.0558C23.1109 59.4172 24.3251 49.4919 36.2613 40.9906C36.2868 40.9721 36.3124 40.9537 36.338 40.9353C36.3958 40.8937 36.4536 40.8522 36.5103 40.8092ZM23.0052 62.7345C23.0052 62.7345 22.9932 62.4903 23.0104 62.0542C23.8759 75.0232 23.0052 62.7345 23.0052 62.7345Z" fill="#6EA0FF"/>
</g>
<rect opacity="0.01" x="10.5" y="9" width="25" height="25" fill="black"/>
<path d="M23.1749 29.3248C22.6426 29.3167 22.1332 29.1067 21.7499 28.7373L20.9499 28.2373C20.7011 27.9894 20.2986 27.9894 20.0499 28.2373L19.2499 28.7373C18.8766 29.1144 18.368 29.3266 17.8374 29.3266C17.3067 29.3266 16.7982 29.1144 16.4249 28.7373L15.6249 28.2373C15.3761 27.9894 14.9736 27.9894 14.7249 28.2373L13.6999 28.9998C13.54 29.1602 13.3124 29.2333 13.089 29.1961C12.8657 29.1589 12.6741 29.0159 12.5749 28.8123C12.3357 28.3567 12.4002 27.801 12.7374 27.4123L13.7624 26.6748C14.5501 25.9014 15.8122 25.9014 16.5999 26.6748L17.3874 27.1873C17.6455 27.424 18.0418 27.424 18.2999 27.1873L19.0874 26.6748C19.8708 25.9028 21.1289 25.9028 21.9124 26.6748L22.7124 27.1873C22.9705 27.424 23.3668 27.424 23.6249 27.1873L24.4124 26.6748C25.1958 25.9028 26.4539 25.9028 27.2374 26.6748L28.0374 27.1873C28.2913 27.4224 28.6834 27.4224 28.9374 27.1873L29.7374 26.6748C30.5208 25.9028 31.7789 25.9028 32.5624 26.6748L33.3624 27.1873C33.694 27.5736 33.7583 28.1224 33.5249 28.5748C33.4211 28.7764 33.2291 28.9179 33.0058 28.9571C32.7825 28.9964 32.5537 28.9289 32.3874 28.7748L31.5999 28.2748C31.3468 28.0254 30.9404 28.0254 30.6874 28.2748L29.8999 28.7748C29.5266 29.1519 29.018 29.3641 28.4874 29.3641C27.9568 29.3641 27.4482 29.1519 27.0749 28.7748L26.2749 28.2748C26.0261 28.0269 25.6236 28.0269 25.3749 28.2748L24.5749 28.7748C24.2021 29.1448 23.7001 29.3555 23.1749 29.3623V29.3248Z" fill="white"/>
<path fill-rule="evenodd" clip-rule="evenodd" d="M26.1997 15.5001C23.2997 13.3251 17.6997 13.3751 17.6997 13.3751V11.2876C17.6861 10.7057 17.2067 10.2431 16.6247 10.2501H12.3247V12.3251H14.4747C15.042 12.3451 15.4934 12.8075 15.4997 13.3751V17.5251C15.4964 17.8058 15.3809 18.0735 15.1789 18.2684C14.977 18.4633 14.7053 18.5693 14.4247 18.5626H12.3247V20.6376H16.6247C17.2067 20.6446 17.6861 20.182 17.6997 19.6001V17.5251C18.9709 17.8286 20.1315 18.4825 21.0497 19.4126C22.2183 20.9618 22.8973 22.8248 22.9997 24.7626C24.1727 25.2997 25.4637 25.5277 26.7497 25.4251C28.373 25.412 29.9812 25.1115 31.4997 24.5376C31.0895 20.9115 29.1641 17.6283 26.1997 15.5001ZM23.175 32.7506L23.1684 32.7505C23.6909 32.7396 24.1896 32.5295 24.5625 32.1631L25.3625 31.6631C25.6113 31.4151 26.0138 31.4151 26.2625 31.6631L27.0625 32.1631C27.4358 32.5402 27.9444 32.7524 28.475 32.7524C29.0057 32.7524 29.5142 32.5402 29.8875 32.1631L30.675 31.6631C30.9281 31.4137 31.3345 31.4137 31.5875 31.6631L32.375 32.1631C32.5391 32.3224 32.7697 32.3934 32.9949 32.3538C33.2202 32.3142 33.4127 32.1688 33.5125 31.9631C33.746 31.5106 33.6817 30.9618 33.35 30.5756L32.55 30.0756C32.1767 29.6985 31.6682 29.4863 31.1375 29.4863C30.6069 29.4863 30.0983 29.6985 29.725 30.0756L28.925 30.5756C28.6711 30.8106 28.279 30.8106 28.025 30.5756L27.225 30.0756C26.8517 29.6985 26.3432 29.4863 25.8125 29.4863C25.2819 29.4863 24.7733 29.6985 24.4 30.0756L23.6125 30.5756C23.3544 30.8123 22.9581 30.8123 22.7 30.5756L21.9 30.0756C21.5267 29.6985 21.0182 29.4863 20.4875 29.4863C19.9569 29.4863 19.4483 29.6985 19.075 30.0756L18.2875 30.5756C18.0294 30.8123 17.6331 30.8123 17.375 30.5756L16.5875 30.0756C16.2121 29.6977 15.7014 29.4852 15.1688 29.4852C14.6361 29.4852 14.1255 29.6977 13.75 30.0756L12.725 30.8006C12.3879 31.1893 12.3234 31.7449 12.5625 32.2006C12.6633 32.4018 12.8533 32.5435 13.0748 32.5829C13.2964 32.6223 13.5236 32.5547 13.6875 32.4006L14.725 31.6631C14.9738 31.4151 15.3763 31.4151 15.625 31.6631L16.425 32.1631C16.7983 32.5402 17.3069 32.7524 17.8375 32.7524C18.3682 32.7524 18.8767 32.5402 19.25 32.1631L20.05 31.6631C20.2988 31.4151 20.7013 31.4151 20.95 31.6631L21.75 32.1631C22.1318 32.5309 22.6385 32.7407 23.1684 32.7505L23.1625 32.7506H23.175ZM28.8376 18.7003H25.5876V19.4128H28.8376V18.7003ZM24.0995 18.4379C24.2124 18.4962 24.336 18.5587 24.4631 18.623L24.4631 18.623C24.772 18.7794 25.1015 18.9462 25.3495 19.0879L24.837 19.7379C24.6188 19.5716 24.176 19.319 23.8461 19.1308L23.846 19.1307C23.7791 19.0925 23.7168 19.057 23.662 19.0254L24.0995 18.4379ZM24.9493 20.9006C24.6118 20.7131 24.0993 20.4506 23.6993 20.2506L23.3243 20.8381C23.5134 20.9909 23.7915 21.1437 24.0427 21.2817L24.0427 21.2817L24.0427 21.2817C24.2231 21.3808 24.3895 21.4722 24.4993 21.5506L24.9493 20.9006ZM24.2494 24.275L23.5369 23.7625C23.8619 23.3125 24.3744 22.5125 24.7869 21.75L25.3619 22.2625C25.0313 22.9549 24.6598 23.6269 24.2494 24.275ZM28.8626 22.0131V21.6881L26.5501 21.7506L26.7501 20.9631H29.2501V20.2506H25.2001V20.9006H26.0376C26.0129 21.0044 25.9882 21.1106 25.9634 21.2172C25.8627 21.65 25.7604 22.0897 25.6501 22.4006H27.9376C27.8751 23.0506 27.8126 23.3756 27.6876 23.5006C27.5888 23.5559 27.4748 23.5779 27.3626 23.5631C26.9451 23.5661 26.5277 23.5452 26.1126 23.5006C26.2944 23.6972 26.4084 23.9469 26.4376 24.2131H27.6876C27.9727 24.2366 28.2557 24.1468 28.4751 23.9631C28.6626 23.7631 28.8001 23.2631 28.8626 22.0131Z" fill="white"/>
</svg>
