<?xml version="1.0" encoding="UTF-8"?>
<svg width="10px" height="10px" viewBox="0 0 10 10" version="1.1" xmlns="http://www.w3.org/2000/svg" xmlns:xlink="http://www.w3.org/1999/xlink">
    <title>删除</title>
    <g id="页面-1" stroke="none" stroke-width="1" fill="none" fill-rule="evenodd">
        <g id="删除">
            <circle id="椭圆形" fill-opacity="0.62741409" fill="#E3DEDE" cx="5" cy="5" r="5"></circle>
            <g id="关闭" transform="translate(2.000000, 2.000000)" fill="#FFFFFF" fill-rule="nonzero">
                <rect id="矩形" opacity="0" x="0" y="0" width="6" height="6"></rect>
                <path d="M3.227625,2.9443125 L5.0360625,1.134375 C5.08342252,1.08701498 5.10191872,1.01798625 5.08458374,0.953291256 C5.06724877,0.888596265 5.01671623,0.838063725 4.95202124,0.820728755 C4.88732625,0.803393785 4.81829752,0.821889979 4.7709375,0.86925 L2.9626875,2.6791875 L1.15425,0.8690625 C1.10688998,0.821702479 1.03786125,0.803206285 0.973166256,0.820541255 C0.908471265,0.837876225 0.857938725,0.888408765 0.840603755,0.953103756 C0.823268785,1.01779875 0.841764979,1.08682748 0.889125,1.1341875 L2.6975625,2.944125 L0.889125,4.7540625 C0.841764979,4.80142252 0.823268785,4.87045125 0.840603755,4.93514624 C0.857938725,4.99984123 0.908471265,5.05037377 0.973166256,5.06770874 C1.03786125,5.08504372 1.10688998,5.06654752 1.15425,5.0191875 L2.9626875,3.20925 L4.7709375,5.0191875 C4.81829752,5.06654752 4.88732625,5.08504372 4.95202125,5.06770875 C5.01671624,5.05037378 5.06724878,4.99984124 5.08458375,4.93514625 C5.10191872,4.87045125 5.08342252,4.80142252 5.0360625,4.7540625 L3.227625,2.9443125 L3.227625,2.9443125 Z" id="路径"></path>
            </g>
        </g>
    </g>
</svg>