<?xml version="1.0" encoding="UTF-8"?>
<svg width="19px" height="19px" viewBox="0 0 19 19" version="1.1" xmlns="http://www.w3.org/2000/svg" xmlns:xlink="http://www.w3.org/1999/xlink">
    <title>企业执法</title>
    <g id="app界面" stroke="none" stroke-width="1" fill="none" fill-rule="evenodd">
        <g id="切图" transform="translate(-565.000000, -327.000000)" fill-rule="nonzero">
            <g id="企业执法" transform="translate(565.125000, 327.042480)">
                <path d="M0,9.375 C0,12.7243649 1.78686484,15.8193058 4.68749996,17.4939883 C7.58813507,19.1686708 11.1618649,19.1686708 14.0625,17.4939883 C16.9631352,15.8193058 18.75,12.7243649 18.75,9.375 C18.75,4.19733047 14.5526695,0 9.375,0 C4.19733047,0 0,4.19733047 0,9.375 Z" id="路径" fill="#E8EAF8"></path>
                <path d="M14.8071289,15.0488281 C13.7304687,14.6411133 9.38720703,13.3984375 9.31884766,13.3789062 L9.31396484,13.3789062 C9.24560547,13.3984375 4.89990234,14.6411133 3.82568359,15.0488281 C3.359375,15.2246094 3.05908203,15.6689453 2.86621094,16.1181641 C3.85986328,17.0776367 5.06591797,17.8198242 6.40869141,18.2666016 L7.87841797,18.6279297 C8.36669922,18.7060547 8.86474609,18.7475586 9.375,18.7475586 C9.79003906,18.7475586 10.2001953,18.7182617 10.6030273,18.6645508 L12.6318359,18.1665039 C13.8208008,17.7270508 14.8950195,17.0507812 15.8007812,16.1962891 C15.6103516,15.7226562 15.3027344,15.2368164 14.8071289,15.0488281 L14.8071289,15.0488281 Z" id="路径" fill="#19227C"></path>
                <path d="M6.13769531,13.8671875 C6.08398438,13.7866211 5.96679688,13.7426758 5.87402344,13.7719727 L4.08203125,14.3286133 C3.98925781,14.3579102 3.91601563,14.4604492 3.91845703,14.5556641 L3.92822266,14.9389648 L3.93066406,15.012207 C4.42871094,14.8339844 5.40039063,14.5336914 6.38183594,14.2382812 L6.34765625,14.1870117 L6.13769531,13.8671875 L6.13769531,13.8671875 Z M14.5507813,14.3286133 L12.7587891,13.7719727 C12.6660156,13.7426758 12.5463867,13.7866211 12.4951172,13.8671875 L12.2851563,14.1870117 L12.2509766,14.2382812 C13.2348633,14.5336914 14.206543,14.831543 14.7021484,15.012207 L14.7045898,14.9389648 L14.7143555,14.5556641 C14.7167969,14.4604492 14.6435547,14.3579102 14.5507813,14.3286133 L14.5507813,14.3286133 Z" id="形状" fill="#3F51B5"></path>
                <path d="M9.55078125,12.4829102 L7.79296875,12.4829102 C7.66357422,12.4829102 7.55859375,12.5878906 7.55859375,12.7172852 L7.55859375,13.7646484 C7.55859375,13.894043 7.65380859,14.0429688 7.77099609,14.0991211 L9.10644531,14.7265625 C9.22363281,14.7827148 9.4140625,14.7827148 9.53125,14.7265625 L10.8666992,14.0991211 C10.9838867,14.0429688 11.0791016,13.894043 11.0791016,13.7646484 L11.0791016,12.7172852 C11.0791016,12.5878906 10.9741211,12.4829102 10.8447266,12.4829102 L9.55078125,12.4829102 Z" id="路径" fill="#EAAE94"></path>
                <polygon id="路径" fill="#D5E9FA" points="11.0571289 13.8745117 9.31640625 14.7680664 7.57568359 13.8745117 7.19238281 13.9868164 9.31640625 17.3168945 11.4428711 13.9868164"></polygon>
                <polygon id="路径" fill="#3F51B5" points="10.1367188 15.3491211 9.31640625 14.7680664 8.49609375 15.3491211 8.81103516 15.8862305 8.6328125 16.2548828 9.31640625 17.3095703 10.0024414 16.2548828 9.82421875 15.8862305"></polygon>
                <path d="M13.4228516,8.66699219 C13.3081055,8.64013672 13.2055664,8.64257812 13.1103516,8.65722656 C13.2128906,8.01269531 13.2275391,7.56591797 13.2275391,7.56591797 L5.40283203,7.56591797 C5.40283203,7.56591797 5.41992188,8.01269531 5.52001953,8.65722656 C5.42480469,8.64013672 5.32226563,8.64013672 5.20751953,8.66699219 C4.55078125,8.81591797 5.1953125,10.8227539 6.13769531,10.9033203 C6.68945313,12.1923828 7.64648438,13.3666992 9.31396484,13.3666992 C10.9814453,13.3666992 11.9384766,12.1948242 12.4902344,10.9033203 C13.4350586,10.8227539 14.0795898,8.81591797 13.4228516,8.66699219 L13.4228516,8.66699219 Z" id="路径" fill="#FAC3A0"></path>
                <path d="M5.40283203,7.56591797 C5.40283203,8.34391675 7.15499889,8.97460938 9.31640625,8.97460938 C11.4778136,8.97460938 13.2299805,8.34391675 13.2299805,7.56591797 C13.2299805,6.78791919 11.4778136,6.15722656 9.31640625,6.15722656 C7.15499889,6.15722656 5.40283203,6.78791919 5.40283203,7.56591797 Z" id="路径" fill="#263238"></path>
                <path d="M14.4287109,5.07568359 C14.0039063,4.97314453 12.5390625,4.56542969 11.7626953,3.8671875 C10.9863281,3.16894531 9.99023438,2.08251953 9.31640625,2.08251953 C8.64257813,2.08251953 7.64892578,3.16894531 6.87011719,3.8671875 C6.09130859,4.56542969 4.62890625,4.97314453 4.20410156,5.07568359 C3.77929688,5.17822266 4.52148438,5.93017578 5.01464844,6.34765625 C5.50537109,6.76513672 5.40283203,7.56591797 5.40283203,7.56591797 L13.2299805,7.56591797 C13.2299805,7.56591797 13.1274414,6.76513672 13.6181641,6.34765625 C14.1088867,5.93017578 14.855957,5.17822266 14.4287109,5.07568359 L14.4287109,5.07568359 Z" id="路径" fill="#1A237E"></path>
                <path d="M10.0317383,4.73144531 L9.34326172,4.43847656 C9.33349609,4.43603516 9.32617187,4.43603516 9.31640625,4.43603516 C9.30664062,4.43603516 9.29931641,4.43847656 9.28955078,4.43847656 L8.60107422,4.73144531 C8.52050781,4.765625 8.46434081,4.82177734 8.46434081,4.88769531 L8.46434081,5.24414062 C8.46191406,5.70068359 8.76464844,6.12060547 9.24804687,6.328125 C9.27001953,6.33789062 9.29199219,6.34033203 9.31640625,6.34033203 C9.33837891,6.34033203 9.36279297,6.33544922 9.38476562,6.328125 C9.86816406,6.12060547 10.1708984,5.703125 10.1684717,5.24414062 L10.1684717,4.88769531 C10.1660156,4.82177734 10.1098633,4.765625 10.0317383,4.73144531 Z" id="路径" fill="#FFEB3B"></path>
                <path d="M13.2446289,7.09716797 L5.390625,7.09716797 C5.4296875,7.35839844 5.40283203,7.56591797 5.40283203,7.56591797 L13.2299805,7.56591797 C13.2299805,7.56591797 13.203125,7.35595703 13.2446289,7.09716797 L13.2446289,7.09716797 Z" id="路径" fill="#3F51B5"></path>
            </g>
        </g>
    </g>
</svg>