<?xml version="1.0" encoding="UTF-8"?>
<svg width="66px" height="63px" viewBox="0 0 66 63" version="1.1" xmlns="http://www.w3.org/2000/svg" xmlns:xlink="http://www.w3.org/1999/xlink">
    <title>拍摄</title>
    <defs>
        <rect id="path-1" x="0" y="0" width="65.6526316" height="63" rx="8"></rect>
        <mask id="mask-2" maskContentUnits="userSpaceOnUse" maskUnits="objectBoundingBox" x="0" y="0" width="65.6526316" height="63" fill="white">
            <use xlink:href="#path-1"></use>
        </mask>
    </defs>
    <g id="app界面" stroke="none" stroke-width="1" fill="none" fill-rule="evenodd">
        <g id="切图" transform="translate(-573.000000, -215.000000)">
            <g id="拍摄" transform="translate(573.000000, 215.000000)">
                <use id="矩形备份-27" stroke="#3479FA" mask="url(#mask-2)" stroke-width="2" fill="#F3F7FF" stroke-dasharray="2" xlink:href="#path-1"></use>
                <g id="编组-12" transform="translate(9.000000, 12.000000)" fill="#3479FA">
                    <text id="拍摄照片" font-family="PingFangSC-Regular, PingFang SC" font-size="12" font-weight="normal">
                        <tspan x="0" y="36">拍摄照片</tspan>
                    </text>
                    <g id="拍摄" transform="translate(12.000000, 0.000000)" fill-rule="nonzero">
                        <rect id="矩形" opacity="0" x="0" y="0" width="25" height="25"></rect>
                        <path d="M2.38587229,3.39137848 L3.99193262,3.39137848 C4.41071613,3.39227949 4.74998468,3.73409931 4.75087897,4.15603202 L4.75087897,5.12319168 C4.75087897,5.18356034 4.70230576,5.23249882 4.64238768,5.23249882 L1.73517089,5.23249882 C1.70639294,5.23249882 1.67879143,5.22099205 1.65844003,5.20049227 C1.63808864,5.17999249 1.62665496,5.15218603 1.62665496,5.12319168 L1.62665496,4.15603202 C1.62754981,3.73398332 1.96699797,3.3921157 2.38589692,3.39137848 L2.38587229,3.39137848 Z M7.11154994,2.0000347 L17.8884501,2.0000347 C18.1068122,2.0000347 18.2934448,2.12168824 18.3826717,2.32228322 L19.9260367,5.77717299 C19.9430725,5.816737 19.9819953,5.8421503 20.0247973,5.84165526 L23.373345,5.84165526 C24.2709837,5.84347143 24.998211,6.57617853 25,7.48056733 L25,20.3613856 C25,21.2637652 24.2692604,21.9999999 23.373345,21.9999999 L1.626113,21.9999999 C0.730739593,22.0002729 0,21.2640382 0,20.3616338 L0,7.48081553 C0,6.57816297 0.730739593,5.8419531 1.62638398,5.8419531 L4.97493171,5.8419531 C5.01777892,5.84257724 5.05676697,5.8170954 5.07366766,5.77742119 L6.61678629,2.32255624 C6.70237217,2.12463055 6.89728175,1.99758892 7.11154994,2.0000347 L7.11154994,2.0000347 Z M12.5218264,6.08352584 C8.75096568,6.08352584 5.69293516,9.16482547 5.69293516,12.9637696 C5.69293516,16.7627138 8.75096568,19.84379 12.5218264,19.84379 C16.292687,19.84379 19.3507422,16.7630364 19.3507422,12.9637944 C19.3507422,9.16457727 16.2927117,6.08352584 12.5218264,6.08352584 L12.5218264,6.08352584 Z M21.6324835,7.79756795 C20.8619909,7.81312705 20.2454377,8.44687164 20.2454377,9.22331372 C20.2454377,9.9997558 20.8619909,10.6335004 21.6324835,10.6490347 C22.4140173,10.6490347 23.0475755,10.0107121 23.0475755,9.22330131 C23.0475755,8.43589052 22.4140173,7.79756795 21.6324835,7.79756795 L21.6324835,7.79756795 Z M12.5218264,7.50513909 C15.5134171,7.50513909 17.9394439,9.94940945 17.9394439,12.9637448 C17.9394439,15.977832 15.5134171,18.4224002 12.5218264,18.4224002 C9.52998932,18.4224002 7.10396244,15.977832 7.10396244,12.9637448 C7.10396244,9.94940945 9.53023567,7.50513909 12.5218264,7.50513909 Z M11.0416494,9.88026102 C11.9131518,9.31046904 11.3991484,8.7097762 10.6117244,9.10659783 C8.53070668,10.1549188 7.67383734,12.7339119 8.65794499,14.8147187 C9.0214056,15.5829215 9.49660928,15.5777341 9.24136898,14.6419965 C8.75394648,12.8544625 9.48170527,10.9001631 11.0416494,9.88028584 L11.0416494,9.88026102 Z" id="形状"></path>
                    </g>
                </g>
            </g>
        </g>
    </g>
</svg>