<?xml version="1.0" encoding="UTF-8"?>
<svg width="24px" height="24px" viewBox="0 0 24 24" version="1.1" xmlns="http://www.w3.org/2000/svg" xmlns:xlink="http://www.w3.org/1999/xlink">
    <title>清除</title>
    <g id="app界面" stroke="none" stroke-width="1" fill="none" fill-rule="evenodd">
        <g id="切图" transform="translate(-1351.000000, -412.000000)" fill="#666666" fill-rule="nonzero">
            <g id="清除" transform="translate(1351.000000, 412.000000)">
                <rect id="矩形" opacity="0" x="0" y="0" width="23.9906287" height="23.9906287"></rect>
                <path d="M10.5948848,3.44162437 L2.61547052,11.4210387 C2.46936144,11.56807 2.27064066,11.6507493 2.06335806,11.6507493 C1.85607547,11.6507493 1.65735469,11.56807 1.51124561,11.4210387 C1.20496681,11.1147599 1.20901991,10.6230925 1.51124561,10.3168137 L9.4906599,2.33739945 C9.63676898,2.19036813 9.83548976,2.10768882 10.0427724,2.10768882 C10.2500549,2.10768882 10.4487757,2.19036813 10.5948848,2.33739945 C10.7419161,2.48350854 10.8245954,2.68222931 10.8245954,2.88951191 C10.8245954,3.0967945 10.7419161,3.29551528 10.5948848,3.44162437 Z M21.6532292,14.4959391 L13.6738149,22.4753534 C13.5277058,22.6223847 13.3289851,22.705064 13.1217025,22.705064 C12.9144199,22.705064 12.7156991,22.6223847 12.56959,22.4753534 C12.2633112,22.1690746 12.2673409,21.6773838 12.56959,21.3711285 L20.5490043,13.3917142 C20.6951134,13.2446829 20.8938342,13.1620035 21.1011168,13.1620035 C21.3083993,13.1620035 21.5071201,13.2446829 21.6532292,13.3917142 C21.959508,13.697993 21.9554549,14.1936665 21.6532292,14.4959391 L21.6532292,14.4959391 Z M10.5707068,14.5442952 L8.15674346,16.9582585 C8.01063438,17.1052898 7.8119136,17.1879691 7.604631,17.1879691 C7.39734841,17.1879691 7.19862763,17.1052898 7.05251855,16.9582585 C6.74623975,16.6519797 6.75026943,16.1603358 7.05251855,15.854057 L9.46645841,13.4400703 C9.6125675,13.293039 9.81128828,13.2103597 10.0185709,13.2103597 C10.2258535,13.2103597 10.4245742,13.293039 10.5706833,13.4400703 C10.8769621,13.7463491 10.8769621,14.2420226 10.5706833,14.5442952 L10.5707068,14.5442952 Z M6.99204998,12.2995783 L5.24303007,14.0485982 C5.09692098,14.1956295 4.89820021,14.2783088 4.69091761,14.2783088 C4.48363502,14.2783088 4.28491424,14.1956295 4.13880515,14.0485982 C3.83252636,13.7423194 3.83657946,13.2506521 4.13880515,12.9443733 L5.8878485,11.1953534 C6.03395666,11.0483293 6.2326724,10.9656545 6.43994924,10.9656545 C6.64722607,10.9656545 6.84594182,11.0483293 6.99204998,11.1953534 C7.29432253,11.5016322 7.29432253,11.9973292 6.99204998,12.2995783 L6.99204998,12.2995783 Z M12.7751269,18.0866849 L11.026107,19.8356814 C10.8799979,19.9827127 10.6812771,20.065392 10.4739945,20.065392 C10.2667119,20.065392 10.0679912,19.9827127 9.92188208,19.8356814 C9.61560328,19.5294026 9.61963296,19.0377587 9.92188208,18.7314799 L11.670902,16.9824365 C11.8170111,16.8354052 12.0157319,16.7527259 12.2230144,16.7527259 C12.430297,16.7527259 12.6290178,16.8354052 12.7751269,16.9824365 C12.9221582,17.1285456 13.0048375,17.3272664 13.0048375,17.534549 C13.0048375,17.7418316 12.9221582,17.9405524 12.7751269,18.0866615 L12.7751269,18.0866849 Z" id="形状"></path>
                <path d="M12.5655603,22.4753534 L1.51124561,11.4250683 C1.36421428,11.2789592 1.28153498,11.0802385 1.28153498,10.8729559 C1.28153498,10.6656733 1.36421428,10.4669525 1.51124561,10.3208434 C1.8175244,10.0145646 2.30921515,10.0186177 2.61547052,10.3208434 L13.6697852,21.3751581 C13.8168166,21.5212672 13.8994959,21.719988 13.8994959,21.9272706 C13.8994959,22.1345532 13.8168166,22.333274 13.6697852,22.4793831 C13.3635064,22.7816087 12.8718391,22.7816087 12.5655603,22.4753534 Z M17.155736,17.8891839 L6.10144475,6.83491605 C5.95441343,6.68880696 5.87173412,6.49008619 5.87173412,6.28280359 C5.87173412,6.075521 5.95441343,5.87680022 6.10144475,5.73069114 C6.40772355,5.42441234 6.89941429,5.42844201 7.20566966,5.73069114 L18.2559313,16.7850059 C18.4029626,16.9311149 18.4856419,17.1298357 18.4856419,17.3371183 C18.4856419,17.5444009 18.4029626,17.7431217 18.2559313,17.8892308 C17.9536822,18.1955096 17.4579852,18.1914565 17.155736,17.8892308 L17.155736,17.8891839 Z M21.3751581,5.14228817 L18.8523702,2.61547052 C18.7053388,2.46936144 18.6226595,2.27064066 18.6226595,2.06335806 C18.6226595,1.85607547 18.7053388,1.65735469 18.8523702,1.51124561 C19.158649,1.20496681 19.6503163,1.20901991 19.9565951,1.51124561 L22.4793596,4.03806326 C22.6263909,4.18417234 22.7090703,4.38289312 22.7090703,4.59017571 C22.7090703,4.79745831 22.6263909,4.99617909 22.4793596,5.14228817 C22.1731043,5.44856697 21.6774073,5.44856697 21.3751581,5.14228817 L21.3751581,5.14228817 Z M13.7584381,7.70134323 L9.49871925,3.44162437 C9.35168793,3.29551528 9.26900862,3.0967945 9.26900862,2.88951191 C9.26900862,2.68222931 9.35168793,2.48350854 9.49871925,2.33739945 C9.80499805,2.03112066 10.2966888,2.03517376 10.6029442,2.33739945 L14.8666927,6.60117142 C15.013724,6.7472805 15.0964033,6.94600128 15.0964033,7.15328387 C15.0964033,7.36056647 15.013724,7.55928725 14.8666927,7.70539633 C14.5604139,8.00764545 14.0647403,8.00764545 13.7584381,7.70136665 L13.7584381,7.70134323 Z M20.5490043,14.4919094 L16.2892854,10.2321671 C16.1422613,10.086059 16.0595866,9.88734321 16.0595866,9.68006638 C16.0595866,9.47278955 16.1422613,9.2740738 16.2892854,9.12796564 C16.5955642,8.82168684 17.0872316,8.82571652 17.3935103,9.12796564 L21.6572355,13.3916907 C21.804274,13.5378008 21.8869579,13.7365266 21.8869579,13.9438149 C21.8869579,14.1511033 21.804274,14.3498291 21.6572355,14.4959391 C21.3509801,14.7981648 20.8552831,14.7981648 20.5490043,14.4919094 Z" id="形状"></path>
                <path d="M22.4753534,5.14228817 L17.3894572,10.2281609 C17.2433482,10.3751922 17.0446274,10.4578715 16.8373448,10.4578715 C16.6300622,10.4578715 16.4313414,10.3751922 16.2852323,10.2281609 C15.9789535,9.92188208 15.9829832,9.43021476 16.2852323,9.12393596 L21.371105,4.03806326 C21.5172141,3.89103193 21.7159349,3.80835263 21.9232175,3.80835263 C22.1305001,3.80835263 22.3292209,3.89103193 22.4753299,4.03806326 C22.7816087,4.34031238 22.7816087,4.83600937 22.4753299,5.14228817 L22.4753534,5.14228817 Z M19.9525654,2.61547052 L14.862663,7.70136665 C14.7165539,7.84839798 14.5178332,7.93107728 14.3105506,7.93107728 C14.103268,7.93107728 13.9045472,7.84839798 13.7584381,7.70136665 C13.4521593,7.39508786 13.4562124,6.90342054 13.7584381,6.59714174 L18.8483405,1.51124561 C18.9944496,1.36421428 19.1931704,1.28153498 19.4004529,1.28153498 C19.6077355,1.28153498 19.8064563,1.36421428 19.9525654,1.51124561 C20.2588442,1.8175244 20.2547911,2.30921515 19.9525654,2.61547052 Z" id="形状"></path>
            </g>
        </g>
    </g>
</svg>