<?xml version="1.0" encoding="UTF-8"?>
<svg width="24px" height="24px" viewBox="0 0 24 24" version="1.1" xmlns="http://www.w3.org/2000/svg" xmlns:xlink="http://www.w3.org/1999/xlink">
    <title>通知</title>
    <g id="app界面" stroke="none" stroke-width="1" fill="none" fill-rule="evenodd">
        <g id="切图" transform="translate(-1351.000000, -358.000000)" fill="#666666" fill-rule="nonzero">
            <g id="通知" transform="translate(1351.000000, 358.000000)">
                <rect id="矩形" opacity="0" x="0" y="0" width="24" height="24"></rect>
                <path d="M12,5.52 C14.7790781,5.52 17.04,7.78092188 17.04,10.56 L17.04,16.7443125 L17.4944531,17.229 L18.4421953,18.24 L5.55780469,18.24 L6.50557031,17.229 L6.96,16.7443125 L6.96,10.56 C6.96,7.78092188 9.22092188,5.52 12,5.52 M12,3.84 C8.28864844,3.84 5.28,6.84864844 5.28,10.56 L5.28,16.08 L3.95327344,17.4951562 C3.09107812,18.4148437 3.74315625,19.92 5.00388281,19.92 L18.9962344,19.92 C20.2568438,19.92 20.9089219,18.4148437 20.0467031,17.4951562 L18.72,16.08 L18.72,10.56 C18.72,6.84864844 15.7113516,3.84 12,3.84 L12,3.84 Z M13.68,20.88 L10.32,20.88 C9.85608081,20.88 9.48,21.2560808 9.48,21.72 C9.48,22.1839192 9.85608081,22.56 10.32,22.56 L13.68,22.56 C14.1439192,22.56 14.52,22.1839192 14.52,21.72 C14.52,21.2560808 14.1439192,20.88 13.68,20.88 L13.68,20.88 Z M12.6,1.44 L11.4,1.44 C11.0998969,1.44 10.8225902,1.60010309 10.6725387,1.86 C10.5224871,2.1198969 10.5224871,2.4401031 10.6725387,2.7 C10.8225902,2.95989691 11.0998969,3.12 11.4,3.12 L12.6,3.12 C12.9001031,3.12 13.1774098,2.95989691 13.3274613,2.7 C13.4775129,2.4401031 13.4775129,2.1198969 13.3274613,1.86 C13.1774098,1.60010309 12.9001031,1.44 12.6,1.44 Z" id="形状"></path>
            </g>
        </g>
    </g>
</svg>