<?xml version="1.0" encoding="UTF-8"?>
<svg width="24px" height="25px" viewBox="0 0 24 25" version="1.1" xmlns="http://www.w3.org/2000/svg" xmlns:xlink="http://www.w3.org/1999/xlink">
    <title>设置</title>
    <g id="app界面" stroke="none" stroke-width="1" fill="none" fill-rule="evenodd">
        <g id="切图" transform="translate(-1351.000000, -465.000000)" fill="#666666" fill-rule="nonzero">
            <g id="设置" transform="translate(1351.000000, 465.500000)">
                <rect id="矩形" opacity="0" x="0" y="0" width="23.9532164" height="23.9532164"></rect>
                <path d="M16.2997661,2.79454969 L7.64304094,2.79454969 C7.0694967,2.79454969 6.53996314,3.10198202 6.25576608,3.60016374 L1.92783626,11.1853567 C1.64808354,11.675767 1.64808354,12.2774494 1.92783626,12.7678596 L6.25578947,20.3530526 C6.53998653,20.8512344 7.06952009,21.1586667 7.64306433,21.1586667 L16.2997661,21.1586667 C16.8725538,21.1586667 17.4014552,20.851842 17.685848,20.3546433 L22.0241871,12.7694503 C22.3051513,12.2782265 22.3051513,11.6749899 22.0241871,11.1837661 L17.685848,3.5985731 C17.4015258,3.10149778 16.8728093,2.79454969 16.3001637,2.79454969 L16.2997661,2.79454969 Z M7.64304094,4.3914152 L16.2997427,4.3914152 L20.6380819,11.9766082 L16.2997661,19.5618012 L7.64304094,19.5618012 L3.31473684,11.9766082 L7.64304094,4.3914152 Z" id="形状"></path>
                <path d="M11.9766082,8.38362573 C10.6929592,8.38362573 9.50681856,9.06844429 8.86499404,10.1801169 C8.22316953,11.2917896 8.22316953,12.6614268 8.86499404,13.7730994 C9.50681856,14.8847721 10.6929592,15.5695906 11.9766082,15.5695906 C13.9609576,15.5695906 15.5695906,13.9609576 15.5695906,11.9766082 C15.5695906,9.99225877 13.9609576,8.38362573 11.9766082,8.38362573 L11.9766082,8.38362573 Z M11.9766082,9.98051462 C13.0790202,9.98051462 13.9727018,10.8741962 13.9727018,11.9766082 C13.9727018,13.0790202 13.0790202,13.9727018 11.9766082,13.9727018 C10.8741962,13.9727018 9.98051462,13.0790202 9.98051462,11.9766082 C9.98051462,10.8741962 10.8741962,9.98051462 11.9766082,9.98051462 Z" id="形状"></path>
            </g>
        </g>
    </g>
</svg>