<?xml version="1.0" encoding="UTF-8"?>
<svg width="24px" height="24px" viewBox="0 0 24 24" version="1.1" xmlns="http://www.w3.org/2000/svg" xmlns:xlink="http://www.w3.org/1999/xlink">
    <title>版本</title>
    <g id="app界面" stroke="none" stroke-width="1" fill="none" fill-rule="evenodd">
        <g id="切图" transform="translate(-1351.000000, -304.000000)" fill="#666666" fill-rule="nonzero">
            <g id="版本" transform="translate(1351.000000, 304.000000)">
                <rect id="矩形" opacity="0" x="0" y="0" width="24" height="24"></rect>
                <path d="M12.2132813,8.9203125 C12.7148438,9.290625 13.4765625,9.065625 13.9125,8.42109375 C14.3484375,7.7765625 14.2945313,6.9515625 13.7929688,6.58125 C13.2914063,6.21328125 12.5296875,6.4359375 12.09375,7.0828125 C11.6578125,7.725 11.7117188,8.54765625 12.2132813,8.9203125 Z M12.9773438,15.984375 C12.9773438,15.984375 11.6554688,16.8117188 11.9835938,15.7664063 C11.9835938,15.7664063 12.0890625,15.309375 12.45,14.3507813 C12.7382813,13.584375 13.209375,12.5015625 13.7859375,11.0601563 C13.7859375,11.0601563 14.0882813,10.3335938 12.8226563,10.471875 C12.2765625,10.5304688 11.60625,10.7789063 11.053125,11.0601563 C10.3289063,11.428125 9.77109375,11.859375 9.59296875,12.01875 L10.0265625,12.28125 C10.0265625,12.28125 12.478125,10.4507813 11.859375,11.9765625 C11.240625,13.5 10.2445313,15.7476563 10.275,16.6617188 C10.3054688,17.5757813 11.9835938,17.034375 11.9835938,17.034375 C11.9835938,17.034375 12.4335938,16.8398438 12.946875,16.5539063 C13.6242188,16.1765625 14.4070313,15.6585938 14.4070313,15.6585938 L14.0039063,15.375 L12.9773438,15.984375 Z M11.9976562,2.1890625 C6.69609375,2.1890625 2.39765625,6.4875 2.39765625,11.7890625 C2.39765625,17.090625 6.69609375,21.3890625 11.9976562,21.3890625 C17.2992187,21.3890625 21.5976562,17.090625 21.5976562,11.7890625 C21.5976562,6.4875 17.2992187,2.1890625 11.9976562,2.1890625 L11.9976562,2.1890625 Z M17.9578125,17.7492188 C16.3664062,19.340625 14.25,20.2171875 11.9976562,20.2171875 C9.7453125,20.2171875 7.62890625,19.340625 6.0375,17.7492188 C4.44609375,16.1578125 3.56953125,14.0414063 3.56953125,11.7890625 C3.56953125,9.53671875 4.44609375,7.4203125 6.0375,5.82890625 C7.62890625,4.2375 9.7453125,3.3609375 11.9976563,3.3609375 C14.2476563,3.3609375 16.3640625,4.2375 17.9578125,5.82890625 C19.5515625,7.4203125 20.4257812,9.5390625 20.4257812,11.7890625 C20.4257812,14.0414063 19.5492187,16.1578125 17.9578125,17.7492188 Z" id="形状"></path>
            </g>
        </g>
    </g>
</svg>