<svg width="24" height="24" viewBox="0 0 24 24" fill="none" xmlns="http://www.w3.org/2000/svg">
<path d="M21.8926 6.28809V17.7109L12 23.4229L2.10742 17.7109V6.28809L12 0.576172L21.8926 6.28809Z" fill="#2DC2A5" stroke="#16AA9A"/>
<path d="M17.493 11.4486C16.1268 11.7991 13.4783 11.3171 12.7847 10.9008C12.2242 10.5721 11.7408 10.9008 11.7408 10.9008V15.933H10.6968V6.54778C10.6968 6.24833 10.928 6 11.2223 6C11.5166 6 11.7478 6.24102 11.7478 6.54778V7.09556C11.7478 7.09556 12.2312 6.7888 12.9178 7.15399C14.1299 7.79671 17.5 7.63603 17.5 7.63603C16.9955 8.03043 16.6242 8.48326 16.5471 9.60073C16.4701 10.594 17.493 11.4486 17.493 11.4486ZM10.1713 14.7206C10.1713 14.7572 10.1783 14.7791 10.1713 14.8156C8.62293 14.9836 7.57898 15.3707 7.57898 15.8162C7.57898 16.4151 9.54777 16.9044 12 16.9044C14.4522 16.9044 16.414 16.4151 16.414 15.8089C16.414 15.3634 15.3771 14.9909 13.8287 14.8229V13.9172C15.9586 14.1363 17.486 14.874 17.486 15.8235C17.486 17.0286 15.0268 18 11.993 18C8.95924 18 6.5 17.0213 6.5 15.8235C6.5 14.874 8.02739 14.1656 10.1573 13.8661V14.7206H10.1713Z" fill="white"/>
</svg>
