<svg width="46" height="61" viewBox="0 0 46 61" fill="none" xmlns="http://www.w3.org/2000/svg">
<mask id="mask0_8_1474" style="mask-type:luminance" maskUnits="userSpaceOnUse" x="0" y="0" width="46" height="61">
<rect x="0.5" width="45" height="61" fill="white"/>
</mask>
<g mask="url(#mask0_8_1474)">
<path fill-rule="evenodd" clip-rule="evenodd" d="M36.5103 40.8092C36.6925 40.6809 36.8677 40.5429 37.0353 40.3958C44.653 34.268 47.4893 23.8937 44.0608 14.6986C40.6323 5.50346 31.7188 -0.421106 21.982 0.0234004C12.2452 0.467907 3.89975 7.18038 1.31019 16.6503C-1.27936 26.1201 2.476 36.1935 10.6123 41.6021C13.7088 43.9164 22.286 51.2613 23.0022 61.9802C23.0074 62.0059 23.0074 62.0285 23.0074 62.0558C23.1109 59.4172 24.3251 49.4919 36.2613 40.9906C36.2868 40.9721 36.3124 40.9537 36.338 40.9353C36.3958 40.8937 36.4536 40.8522 36.5103 40.8092ZM23.0052 62.7345C23.0052 62.7345 22.9932 62.4903 23.0104 62.0542C23.8759 75.0232 23.0052 62.7345 23.0052 62.7345Z" fill="#2DC2A5"/>
</g>
<path d="M34.8198 20.6557C31.6998 21.4237 25.6518 20.3677 24.0678 19.4557C22.7878 18.7357 21.6838 19.4557 21.6838 19.4557V30.4797H19.2998V9.91973C19.2998 9.26373 19.8278 8.71973 20.4998 8.71973C21.1718 8.71973 21.6998 9.24773 21.6998 9.91973V11.1197C21.6998 11.1197 22.8038 10.4477 24.3718 11.2477C27.1398 12.6557 34.8358 12.3037 34.8358 12.3037C33.6838 13.1677 32.8358 14.1597 32.6598 16.6077C32.4838 18.7837 34.8198 20.6557 34.8198 20.6557ZM18.0998 27.8237C18.0998 27.9037 18.1158 27.9517 18.0998 28.0317C14.5638 28.3997 12.1798 29.2477 12.1798 30.2237C12.1798 31.5357 16.6758 32.6077 22.2758 32.6077C27.8758 32.6077 32.3558 31.5357 32.3558 30.2077C32.3558 29.2317 29.9878 28.4157 26.4518 28.0477V26.0637C31.3158 26.5437 34.8038 28.1597 34.8038 30.2397C34.8038 32.8797 29.1878 35.0077 22.2598 35.0077C15.3318 35.0077 9.71582 32.8637 9.71582 30.2397C9.71582 28.1597 13.2038 26.6077 18.0678 25.9517V27.8237H18.0998Z" fill="white"/>
</svg>
