<svg width="46" height="61" viewBox="0 0 46 61" fill="none" xmlns="http://www.w3.org/2000/svg">
<mask id="mask0_2003_479" style="mask-type:luminance" maskUnits="userSpaceOnUse" x="0" y="0" width="46" height="61">
<rect x="0.5" width="45" height="61" fill="white"/>
</mask>
<g mask="url(#mask0_2003_479)">
<path fill-rule="evenodd" clip-rule="evenodd" d="M36.5103 40.8092C36.6925 40.6809 36.8677 40.5429 37.0353 40.3958C44.653 34.268 47.4893 23.8937 44.0608 14.6986C40.6323 5.50346 31.7188 -0.421106 21.982 0.0234004C12.2452 0.467907 3.89975 7.18038 1.31019 16.6503C-1.27936 26.1201 2.476 36.1935 10.6123 41.6021C13.7088 43.9164 22.286 51.2613 23.0022 61.9802C23.0074 62.0059 23.0074 62.0285 23.0074 62.0558C23.1109 59.4172 24.3251 49.4919 36.2613 40.9906C36.2868 40.9721 36.3124 40.9537 36.338 40.9353C36.3958 40.8937 36.4536 40.8522 36.5103 40.8092ZM23.0052 62.7345C23.0052 62.7345 22.9932 62.4903 23.0104 62.0542C23.8759 75.0232 23.0052 62.7345 23.0052 62.7345Z" fill="#EF4F3A"/>
</g>
<path d="M19.4556 17.2641C19.7444 17.4071 21.4778 18.5513 22.4889 17.2641C23.6444 15.6907 25.0889 15.5477 25.5222 16.1198C25.9556 16.6919 25.6667 16.4059 26.6778 16.5489C27.6889 16.6919 27.8333 17.6932 27.8333 17.6932H28.9889L28.5556 15.8337L26.9667 15.1186C26.2444 15.4046 25.3778 13.9743 25.3778 13.9743C24.3667 15.5477 22.9222 14.6895 22.9222 14.6895C20.4667 18.5513 19.4556 15.1186 19.4556 15.1186C18.8778 16.2628 17.8667 16.6919 17.8667 16.6919C17.8667 16.6919 15.1222 17.2641 15.1222 15.1186C15.1222 12.9731 17.8667 13.5452 17.8667 13.5452C20.4667 9.25428 19.7444 13.5452 19.7444 13.5452H21.6222C22.9222 8.11002 25.9556 11.9719 25.9556 11.9719H26.6778C29.7111 11.2567 29.1333 14.6895 29.1333 14.6895C31.5889 14.5465 30.7222 16.1198 30.7222 16.1198V17.6932H31.8778C34.6222 14.6895 31.1556 13.1161 31.1556 13.1161C30.2889 8.96821 26.8222 10.3985 26.8222 10.3985C23.7889 7.25183 21.0444 10.3985 21.0444 10.3985C18.1556 8.96822 17.5778 11.5428 17.5778 11.5428C12.2333 11.5428 13.2444 15.8337 13.2444 15.8337C15.7 20.2677 19.1667 17.121 19.4556 17.2641ZM10.5 35H36.5V33.8557H10.5V35ZM32.0222 18.1222H27.6889C27.1111 18.1222 26.6778 18.5513 26.6778 19.1235C26.6778 19.6956 27.1111 20.1247 27.6889 20.1247H32.0222C32.6 20.1247 33.0333 19.6956 33.0333 19.1235C33.0333 18.5513 32.6 18.1222 32.0222 18.1222ZM19.4556 27.2763H18.3C17.8667 27.2763 17.5778 26.9902 17.5778 26.5611C17.5778 26.132 17.8667 25.846 18.3 25.846H19.4556C19.8889 25.846 20.1778 26.132 20.1778 26.5611C20.1778 26.9902 19.8889 27.2763 19.4556 27.2763ZM15.9889 27.2763H14.8333C14.4 27.2763 14.1111 26.9902 14.1111 26.5611C14.1111 26.132 14.4 25.846 14.8333 25.846H15.9889C16.4222 25.846 16.7111 26.132 16.7111 26.5611C16.7111 26.9902 16.4222 27.2763 15.9889 27.2763ZM25.0889 33.1406H34.4778L33.3222 21.9841C33.3222 21.412 32.7444 20.8399 32.1667 20.8399H27.5444C26.9667 20.8399 26.3889 21.412 26.3889 21.9841L25.5222 29.5648L25.2333 26.132C25.2333 25.5599 24.6556 24.9878 24.0778 24.9878L12.8111 23.1284C12.2333 23.1284 11.6556 23.7005 11.6556 24.2726V33.1406H25.0889Z" fill="white"/>
</svg>
