<svg width="24" height="24" viewBox="0 0 24 24" fill="none" xmlns="http://www.w3.org/2000/svg">
<path d="M21.8926 6.28809V17.7109L12 23.4229L2.10742 17.7109V6.28809L12 0.576172L21.8926 6.28809Z" fill="#EF4F3A" stroke="#BA3624"/>
<path d="M10.1333 8.79228C10.2667 8.85895 11.0667 9.39228 11.5333 8.79228C12.0667 8.05895 12.7333 7.99228 12.9333 8.25895C13.1333 8.52561 13 8.39228 13.4667 8.45895C13.9333 8.52561 14 8.99228 14 8.99228H14.5333L14.3333 8.12561L13.6 7.79228C13.2667 7.92561 12.8667 7.25895 12.8667 7.25895C12.4 7.99228 11.7333 7.59228 11.7333 7.59228C10.6 9.39228 10.1333 7.79228 10.1333 7.79228C9.86667 8.32561 9.4 8.52561 9.4 8.52561C9.4 8.52561 8.13333 8.79228 8.13333 7.79228C8.13333 6.79228 9.4 7.05895 9.4 7.05895C10.6 5.05895 10.2667 7.05895 10.2667 7.05895H11.1333C11.7333 4.52561 13.1333 6.32562 13.1333 6.32562H13.4667C14.8667 5.99228 14.6 7.59228 14.6 7.59228C15.7333 7.52561 15.3333 8.25895 15.3333 8.25895V8.99228H15.8667C17.1333 7.59228 15.5333 6.85895 15.5333 6.85895C15.1333 4.92561 13.5333 5.59228 13.5333 5.59228C12.1333 4.12561 10.8667 5.59228 10.8667 5.59228C9.53333 4.92561 9.26667 6.12562 9.26667 6.12562C6.8 6.12562 7.26667 8.12561 7.26667 8.12561C8.4 10.1923 10 8.72561 10.1333 8.79228ZM6 17.0589H18V16.5256H6V17.0589ZM15.9333 9.19228H13.9333C13.6667 9.19228 13.4667 9.39228 13.4667 9.65895C13.4667 9.92561 13.6667 10.1256 13.9333 10.1256H15.9333C16.2 10.1256 16.4 9.92561 16.4 9.65895C16.4 9.39228 16.2 9.19228 15.9333 9.19228ZM10.1333 13.4589H9.6C9.4 13.4589 9.26667 13.3256 9.26667 13.1256C9.26667 12.9256 9.4 12.7923 9.6 12.7923H10.1333C10.3333 12.7923 10.4667 12.9256 10.4667 13.1256C10.4667 13.3256 10.3333 13.4589 10.1333 13.4589ZM8.53333 13.4589H8C7.8 13.4589 7.66667 13.3256 7.66667 13.1256C7.66667 12.9256 7.8 12.7923 8 12.7923H8.53333C8.73333 12.7923 8.86667 12.9256 8.86667 13.1256C8.86667 13.3256 8.73333 13.4589 8.53333 13.4589ZM12.7333 16.1923H17.0667L16.5333 10.9923C16.5333 10.7256 16.2667 10.4589 16 10.4589H13.8667C13.6 10.4589 13.3333 10.7256 13.3333 10.9923L12.9333 14.5256L12.8 12.9256C12.8 12.6589 12.5333 12.3923 12.2667 12.3923L7.06667 11.5256C6.8 11.5256 6.53333 11.7923 6.53333 12.0589V16.1923H12.7333Z" fill="white"/>
</svg>
