<svg width="46" height="61" viewBox="0 0 46 61" fill="none" xmlns="http://www.w3.org/2000/svg">
<mask id="mask0_8_1357" style="mask-type:luminance" maskUnits="userSpaceOnUse" x="0" y="0" width="46" height="61">
<rect x="0.5" width="45" height="61" fill="white"/>
</mask>
<g mask="url(#mask0_8_1357)">
<path fill-rule="evenodd" clip-rule="evenodd" d="M36.5103 40.8092C36.6925 40.6809 36.8677 40.5429 37.0353 40.3958C44.653 34.268 47.4893 23.8937 44.0608 14.6986C40.6323 5.50346 31.7188 -0.421106 21.982 0.0234004C12.2452 0.467907 3.89975 7.18038 1.31019 16.6503C-1.27936 26.1201 2.476 36.1935 10.6123 41.6021C13.7088 43.9164 22.286 51.2613 23.0022 61.9802C23.0074 62.0059 23.0074 62.0285 23.0074 62.0558C23.1109 59.4172 24.3251 49.4919 36.2613 40.9906C36.2868 40.9721 36.3124 40.9537 36.338 40.9353C36.3958 40.8937 36.4536 40.8522 36.5103 40.8092ZM23.0052 62.7345C23.0052 62.7345 22.9932 62.4903 23.0104 62.0542C23.8759 75.0232 23.0052 62.7345 23.0052 62.7345Z" fill="#6E95EA"/>
</g>
<path d="M31.593 25.1107C31.593 24.9556 31.7155 25.2575 31.9676 25.4044C32.7239 26.1469 33.8619 26.302 35 25.5595V23.03C34.7479 23.03 34.4958 23.03 34.3661 23.185C33.7323 23.6338 33.3505 23.6338 33.0984 23.4788L32.8463 23.185C31.8379 22.4425 30.8295 21.9937 29.6915 21.9937L27.9268 25.1188C29.0216 24.2213 30.5054 24.2213 31.593 25.1107ZM23 25.1107C25.7803 25.1107 28.0564 22.5812 28.0564 19.3092C28.0564 16.0372 23 8 23 8C23 8 17.9508 16.0372 17.9508 19.3092C17.9436 22.5894 20.2197 25.1107 23 25.1107ZM11 22.8831V25.4126C11.2377 25.4044 11.4682 25.2983 11.6339 25.1107C12.6423 24.2131 13.2689 24.0744 14.5366 25.1107C14.7887 25.4126 15.4154 25.7063 16.0492 25.8532C16.8055 26.1469 17.569 26.0001 18.3253 25.6982L17.0576 23.6175C16.8415 23.593 16.6182 23.6419 16.4238 23.7643C16.042 23.6175 15.7971 23.4706 15.6603 23.3237C13.9028 21.8387 12.3902 21.8387 11 22.8831ZM33.1128 29.4271L32.8607 29.1334C31.956 28.4048 30.8735 28.0134 29.7635 28.0134C28.6535 28.0134 27.571 28.4048 26.6663 29.1334C26.1621 29.574 25.5282 29.729 25.024 29.574C24.6423 29.4271 24.3902 29.2802 24.2677 29.1334C23.363 28.4048 22.2805 28.0134 21.1705 28.0134C20.0605 28.0134 18.978 28.4048 18.0732 29.1334C17.569 29.574 16.9352 29.729 16.431 29.574C16.0492 29.4271 15.8043 29.2802 15.6747 29.1334C13.91 27.6402 12.3902 27.6402 11 28.6846V31.2141C11.2521 31.2141 11.3818 31.2141 11.6411 31.059C12.6495 30.1696 13.2833 30.0228 14.5438 31.059C14.7959 31.3609 15.4226 31.6547 16.0564 31.8015C17.1513 32.1443 18.3325 31.8668 19.2113 31.059C19.7686 30.6247 20.4292 30.3921 21.1056 30.3921C21.7821 30.3921 22.4427 30.6247 23 31.059C23.2521 31.3609 23.886 31.6547 24.5198 31.8015C25.6579 32.0953 26.7887 31.9484 27.8043 31.059C28.3616 30.6247 29.0222 30.3921 29.6987 30.3921C30.3752 30.3921 31.0357 30.6247 31.593 31.059C31.593 30.9121 31.7155 31.2059 31.9676 31.3609C32.7239 32.1035 33.8619 32.2585 35 31.5078V28.9783C34.7479 28.9783 34.4958 28.9783 34.3661 29.1334C33.7395 29.574 33.3649 29.574 33.1128 29.4271ZM14.5366 19.1623C14.9112 19.6029 15.401 19.913 15.9268 20.0599H16.1789L16.431 17.6854C16.0492 17.6854 15.8043 17.3835 15.6747 17.2367C13.91 15.7516 12.3902 15.7516 11 16.7879V19.4724C11.2521 19.4724 11.3818 19.3255 11.6339 19.1705C12.6351 18.2729 13.2689 18.1179 14.5366 19.1623ZM34.3734 17.3754C33.7395 17.8242 33.3577 17.8242 33.1056 17.6773L32.8535 17.3754C31.8451 16.4778 30.7071 16.0372 29.4394 16.1841L29.569 18.5585C30.3253 18.5585 30.9592 18.8523 31.593 19.301C31.593 19.146 31.7155 19.4479 31.9676 19.5948C32.7239 20.3373 33.8619 20.4923 35 19.7498V17.2203C34.7479 17.2285 34.4958 17.2285 34.3734 17.3754Z" fill="white"/>
</svg>
