<svg width="24" height="24" viewBox="0 0 24 24" fill="none" xmlns="http://www.w3.org/2000/svg">
<path d="M21.8926 6.28809V17.7109L12 23.4229L2.10742 17.7109V6.28809L12 0.576172L21.8926 6.28809Z" fill="#6EA0FF" stroke="#4F8CFF"/>
<path d="M16.2965 13.5553C16.2965 13.4778 16.3577 13.6288 16.4838 13.7022C16.8619 14.0735 17.431 14.151 18 13.7797V12.515C17.874 12.515 17.7479 12.515 17.6831 12.5925C17.3661 12.8169 17.1753 12.8169 17.0492 12.7394L16.9232 12.5925C16.419 12.2212 15.9148 11.9969 15.3457 11.9969L14.4634 13.5594C15.0108 13.1106 15.7527 13.1106 16.2965 13.5553ZM12 13.5553C13.3902 13.5553 14.5282 12.2906 14.5282 10.6546C14.5282 9.0186 12 5 12 5C12 5 9.47539 9.0186 9.47539 10.6546C9.47179 12.2947 10.6098 13.5553 12 13.5553ZM6 12.4416V13.7063C6.11885 13.7022 6.23409 13.6492 6.31693 13.5553C6.82113 13.1066 7.13445 13.0372 7.76831 13.5553C7.89436 13.7063 8.20768 13.8532 8.52461 13.9266C8.90276 14.0735 9.28451 14 9.66266 13.8491L9.02881 12.8087C8.92077 12.7965 8.80912 12.821 8.71188 12.8822C8.52101 12.8087 8.39856 12.7353 8.33013 12.6619C7.45138 11.9193 6.69508 11.9193 6 12.4416ZM17.0564 15.7136L16.9304 15.5667C16.478 15.2024 15.9368 15.0067 15.3818 15.0067C14.8267 15.0067 14.2855 15.2024 13.8331 15.5667C13.581 15.787 13.2641 15.8645 13.012 15.787C12.8211 15.7136 12.6951 15.6401 12.6339 15.5667C12.1815 15.2024 11.6402 15.0067 11.0852 15.0067C10.5302 15.0067 9.98898 15.2024 9.53661 15.5667C9.28451 15.787 8.96759 15.8645 8.71549 15.787C8.52461 15.7136 8.40216 15.6401 8.33733 15.5667C7.45498 14.8201 6.69508 14.8201 6 15.3423V16.607C6.12605 16.607 6.19088 16.607 6.32053 16.5295C6.82473 16.0848 7.14166 16.0114 7.77191 16.5295C7.89796 16.6805 8.21128 16.8273 8.52821 16.9008C9.07563 17.0721 9.66627 16.9334 10.1056 16.5295C10.3843 16.3123 10.7146 16.1961 11.0528 16.1961C11.3911 16.1961 11.7213 16.3123 12 16.5295C12.1261 16.6805 12.443 16.8273 12.7599 16.9008C13.3289 17.0476 13.8944 16.9742 14.4022 16.5295C14.6808 16.3123 15.0111 16.1961 15.3493 16.1961C15.6876 16.1961 16.0179 16.3123 16.2965 16.5295C16.2965 16.4561 16.3577 16.6029 16.4838 16.6805C16.8619 17.0517 17.431 17.1292 18 16.7539V15.4892C17.874 15.4892 17.7479 15.4892 17.6831 15.5667C17.3697 15.787 17.1825 15.787 17.0564 15.7136ZM7.76831 10.5812C7.95558 10.8015 8.20048 10.9565 8.46339 11.0299H8.58944L8.71549 9.84272C8.52461 9.84272 8.40216 9.69177 8.33733 9.61833C7.45498 8.87581 6.69508 8.87581 6 9.39394V10.7362C6.12605 10.7362 6.19088 10.6628 6.31693 10.5852C6.81753 10.1365 7.13445 10.0589 7.76831 10.5812ZM17.6867 9.68769C17.3697 9.91208 17.1789 9.91208 17.0528 9.83864L16.9268 9.68769C16.4226 9.23891 15.8535 9.0186 15.2197 9.09204L15.2845 10.2793C15.6627 10.2793 15.9796 10.4261 16.2965 10.6505C16.2965 10.573 16.3577 10.724 16.4838 10.7974C16.8619 11.1687 17.431 11.2462 18 10.8749V9.61017C17.874 9.61425 17.7479 9.61425 17.6867 9.68769Z" fill="white"/>
</svg>
